<svg width="60" height="60" viewBox="0 0 60 60" fill="none" xmlns="http://www.w3.org/2000/svg">
<rect width="60" height="60" rx="8" fill="url(#paint0_linear_153_15)" fill-opacity="0.2"/>
<path d="M21.9997 40.6667C21.2663 40.6667 20.6388 40.4058 20.117 39.884C19.5952 39.3623 19.3339 38.7343 19.333 38V35.3334C19.333 34.9556 19.461 34.6392 19.717 34.384C19.973 34.1289 20.2895 34.0009 20.6663 34C21.0432 33.9992 21.3601 34.1272 21.617 34.384C21.8739 34.6409 22.0015 34.9574 21.9997 35.3334V38H37.9997V35.3334C37.9997 34.9556 38.1277 34.6392 38.3837 34.384C38.6397 34.1289 38.9561 34.0009 39.333 34C39.7099 33.9992 40.0268 34.1272 40.2837 34.384C40.5406 34.6409 40.6681 34.9574 40.6663 35.3334V38C40.6663 38.7334 40.4055 39.3614 39.8837 39.884C39.3619 40.4067 38.7339 40.6676 37.9997 40.6667H21.9997ZM28.6663 24.4667L26.1663 26.9667C25.8997 27.2334 25.5832 27.3614 25.217 27.3507C24.8508 27.34 24.5339 27.2009 24.2663 26.9334C24.0219 26.6667 23.8939 26.3556 23.8823 26C23.8708 25.6445 23.9988 25.3334 24.2663 25.0667L29.0663 20.2667C29.1997 20.1334 29.3441 20.0392 29.4997 19.984C29.6552 19.9289 29.8219 19.9009 29.9997 19.9C30.1775 19.8992 30.3441 19.9272 30.4997 19.984C30.6552 20.0409 30.7997 20.1352 30.933 20.2667L35.733 25.0667C35.9997 25.3334 36.1277 25.6445 36.117 26C36.1063 26.3556 35.9783 26.6667 35.733 26.9334C35.4663 27.2 35.1499 27.3392 34.7837 27.3507C34.4175 27.3623 34.1006 27.2343 33.833 26.9667L31.333 24.4667V34C31.333 34.3778 31.205 34.6947 30.949 34.9507C30.693 35.2067 30.3766 35.3343 29.9997 35.3334C29.6228 35.3325 29.3063 35.2045 29.0503 34.9494C28.7943 34.6943 28.6663 34.3778 28.6663 34V24.4667Z" fill="url(#paint1_linear_153_15)"/>
<defs>
<linearGradient id="paint0_linear_153_15" x1="0" y1="30" x2="60" y2="30" gradientUnits="userSpaceOnUse">
<stop stop-color="#8E5EFF"/>
<stop offset="1" stop-color="#4596FF"/>
</linearGradient>
<linearGradient id="paint1_linear_153_15" x1="19.333" y1="30.2834" x2="40.6664" y2="30.2834" gradientUnits="userSpaceOnUse">
<stop stop-color="#8E5EFF"/>
<stop offset="1" stop-color="#4596FF"/>
</linearGradient>
</defs>
</svg>
