<svg width="8" height="16" viewBox="0 0 8 16" fill="none" xmlns="http://www.w3.org/2000/svg">
<path fill-rule="evenodd" clip-rule="evenodd" d="M7.7117 0.851779C7.65945 0.799395 7.59737 0.757835 7.52904 0.729477C7.4607 0.70112 7.38744 0.686523 7.31345 0.686523C7.23946 0.686523 7.1662 0.70112 7.09786 0.729477C7.02952 0.757835 6.96745 0.799395 6.9152 0.851779L0.165198 7.60178C0.112814 7.65403 0.0712538 7.7161 0.0428963 7.78444C0.0145392 7.85278 -5.72205e-05 7.92604 -5.72205e-05 8.00003C-5.72205e-05 8.07402 0.0145392 8.14728 0.0428963 8.21562C0.0712538 8.28395 0.112814 8.34603 0.165198 8.39828L6.9152 15.1483C7.02082 15.2539 7.16408 15.3132 7.31345 15.3132C7.46282 15.3132 7.60608 15.2539 7.7117 15.1483C7.81732 15.0427 7.87666 14.8994 7.87666 14.75C7.87666 14.6007 7.81732 14.4574 7.7117 14.3518L1.35882 8.00003L7.7117 1.64828C7.76408 1.59603 7.80564 1.53396 7.834 1.46562C7.86236 1.39728 7.87695 1.32402 7.87695 1.25003C7.87695 1.17604 7.86236 1.10278 7.834 1.03444C7.80564 0.966103 7.76408 0.90403 7.7117 0.851779Z" fill="black"/>
</svg>
