<svg width="16" height="19" viewBox="0 0 16 19" fill="none" xmlns="http://www.w3.org/2000/svg">
<path d="M7.01412 3.24916C7.54306 2.66841 8.45679 2.66841 8.98572 3.24916L9.66586 3.99598C9.93312 4.2895 10.3173 4.44863 10.7139 4.4301L11.7229 4.38294C12.5075 4.34627 13.1537 4.99242 13.1171 5.77707L13.0699 6.78608C13.0513 7.18263 13.2105 7.56682 13.504 7.83412L14.2508 8.51424C14.8316 9.04318 14.8316 9.95691 14.2508 10.4858L13.504 11.166C13.2105 11.4332 13.0513 11.8174 13.0699 12.214L13.1171 13.223C13.1537 14.0076 12.5075 14.6538 11.7229 14.6172L10.7139 14.57C10.3173 14.5514 9.93312 14.7106 9.66586 15.0041L8.98572 15.7509C8.45679 16.3317 7.54306 16.3317 7.01412 15.7509L6.33399 15.0041C6.0667 14.7106 5.68251 14.5514 5.28595 14.57L4.27694 14.6172C3.4923 14.6538 2.84615 14.0076 2.88282 13.223L2.92997 12.214C2.94851 11.8174 2.78937 11.4332 2.49586 11.166L1.74904 10.4858C1.16829 9.95691 1.16829 9.04318 1.74904 8.51424L2.49586 7.83412C2.78937 7.56682 2.94851 7.18263 2.92997 6.78608L2.88282 5.77706C2.84615 4.99242 3.4923 4.34627 4.27695 4.38294L5.28595 4.4301C5.68251 4.44863 6.0667 4.2895 6.33399 3.99598L7.01412 3.24916Z" fill="#1279FF" stroke="#1279FF" stroke-width="1.06667"/>
<path d="M6 9.49996L7.33333 10.8333L10 8.16663" stroke="white" stroke-width="1.06667" stroke-linecap="round" stroke-linejoin="round"/>
</svg>
