<svg width="60" height="60" viewBox="0 0 60 60" fill="none" xmlns="http://www.w3.org/2000/svg">
<rect width="60" height="60" rx="8" fill="url(#paint0_linear_15_2294)" fill-opacity="0.2"/>
<path d="M30 39.3333C28.1758 38.2801 26.1064 37.7256 24 37.7256C21.8936 37.7256 19.8242 38.2801 18 39.3333V22C19.8242 20.9468 21.8936 20.3923 24 20.3923C26.1064 20.3923 28.1758 20.9468 30 22M30 39.3333C31.8242 38.2801 33.8936 37.7256 36 37.7256C38.1064 37.7256 40.1758 38.2801 42 39.3333V22C40.1758 20.9468 38.1064 20.3923 36 20.3923C33.8936 20.3923 31.8242 20.9468 30 22M30 39.3333V22" stroke="url(#paint1_linear_15_2294)" stroke-width="2.66667" stroke-linecap="round" stroke-linejoin="round"/>
<defs>
<linearGradient id="paint0_linear_15_2294" x1="0" y1="30" x2="60" y2="30" gradientUnits="userSpaceOnUse">
<stop stop-color="#8E5EFF"/>
<stop offset="1" stop-color="#4596FF"/>
</linearGradient>
<linearGradient id="paint1_linear_15_2294" x1="18" y1="29.8628" x2="42" y2="29.8628" gradientUnits="userSpaceOnUse">
<stop stop-color="#8E5EFF"/>
<stop offset="1" stop-color="#4596FF"/>
</linearGradient>
</defs>
</svg>
