<svg width="16" height="12" viewBox="0 0 16 12" fill="none" xmlns="http://www.w3.org/2000/svg">
<path fill-rule="evenodd" clip-rule="evenodd" d="M5.1875 6C5.1875 5.25408 5.48382 4.53871 6.01126 4.01126C6.53871 3.48382 7.25408 3.1875 8 3.1875C8.74592 3.1875 9.46129 3.48382 9.98874 4.01126C10.5162 4.53871 10.8125 5.25408 10.8125 6C10.8125 6.74592 10.5162 7.46129 9.98874 7.98874C9.46129 8.51618 8.74592 8.8125 8 8.8125C7.25408 8.8125 6.53871 8.51618 6.01126 7.98874C5.48382 7.46129 5.1875 6.74592 5.1875 6ZM8 4.3125C7.55245 4.3125 7.12323 4.49029 6.80676 4.80676C6.49029 5.12323 6.3125 5.55245 6.3125 6C6.3125 6.44755 6.49029 6.87678 6.80676 7.19324C7.12323 7.50971 7.55245 7.6875 8 7.6875C8.44755 7.6875 8.87678 7.50971 9.19324 7.19324C9.50971 6.87678 9.6875 6.44755 9.6875 6C9.6875 5.55245 9.50971 5.12323 9.19324 4.80676C8.87678 4.49029 8.44755 4.3125 8 4.3125Z" fill="white"/>
<path fill-rule="evenodd" clip-rule="evenodd" d="M2.24225 4.9845C1.928 5.4375 1.8125 5.79225 1.8125 6C1.8125 6.20775 1.928 6.5625 2.24225 7.0155C2.54675 7.45275 2.99825 7.9275 3.56975 8.36625C4.715 9.24525 6.28475 9.9375 8 9.9375C9.71525 9.9375 11.285 9.24525 12.4303 8.36625C13.0017 7.9275 13.4532 7.45275 13.7577 7.0155C14.072 6.5625 14.1875 6.20775 14.1875 6C14.1875 5.79225 14.072 5.4375 13.7577 4.9845C13.4532 4.54725 13.0017 4.0725 12.4303 3.63375C11.285 2.75475 9.71525 2.0625 8 2.0625C6.28475 2.0625 4.715 2.75475 3.56975 3.63375C2.99825 4.0725 2.54675 4.54725 2.24225 4.9845ZM2.88425 2.74125C4.1825 1.74525 5.987 0.9375 8 0.9375C10.013 0.9375 11.8175 1.74525 13.115 2.74125C13.7653 3.24 14.3022 3.7965 14.6818 4.34325C15.0508 4.875 15.3125 5.45775 15.3125 6C15.3125 6.54225 15.05 7.125 14.6818 7.65675C14.3022 8.2035 13.7652 8.75925 13.1157 9.25875C11.8182 10.2547 10.013 11.0625 8 11.0625C5.987 11.0625 4.1825 10.2547 2.885 9.25875C2.23475 8.76 1.69775 8.2035 1.31825 7.65675C0.95 7.125 0.6875 6.54225 0.6875 6C0.6875 5.45775 0.95 4.875 1.31825 4.34325C1.69775 3.7965 2.23475 3.24075 2.88425 2.74125Z" fill="white"/>
</svg>
