<svg width="17" height="17" viewBox="0 0 17 17" fill="none" xmlns="http://www.w3.org/2000/svg">
<g clip-path="url(#clip0_415_4360)">
<path d="M16.3164 8.26343C16.3164 3.84518 12.7347 0.263428 8.31641 0.263428C3.89816 0.263428 0.316406 3.84518 0.316406 8.26343C0.316406 12.2564 3.24191 15.5661 7.06641 16.1662V10.5759H5.03516V8.26343H7.06641V6.50093C7.06641 4.49593 8.26078 3.38843 10.0882 3.38843C10.9634 3.38843 11.8789 3.54468 11.8789 3.54468V5.51343H10.8702C9.87634 5.51343 9.56641 6.13012 9.56641 6.7628V8.26343H11.7852L11.4305 10.5759H9.56641V16.1662C13.3909 15.5661 16.3164 12.2565 16.3164 8.26343Z" fill="#1877F2"/>
<path d="M11.4305 10.5759L11.7852 8.26343H9.56641V6.7628C9.56641 6.13005 9.87634 5.51343 10.8702 5.51343H11.8789V3.54468C11.8789 3.54468 10.9634 3.38843 10.0881 3.38843C8.26078 3.38843 7.06641 4.49593 7.06641 6.50093V8.26343H5.03516V10.5759H7.06641V16.1662C7.47992 16.231 7.89785 16.2635 8.31641 16.2634C8.73496 16.2635 9.15289 16.231 9.56641 16.1662V10.5759H11.4305Z" fill="white"/>
</g>
<defs>
<clipPath id="clip0_415_4360">
<rect width="16" height="16" fill="white" transform="translate(0.316406 0.263428)"/>
</clipPath>
</defs>
</svg>
