<svg width="273" height="121" viewBox="0 0 273 121" fill="none" xmlns="http://www.w3.org/2000/svg">
<g filter="url(#filter0_d_72_455)">
<g clip-path="url(#clip0_72_455)">
<rect x="34.8569" y="34.8574" width="203.143" height="51.4286" rx="10.2857" fill="white"/>
<rect x="45.1431" y="40.0002" width="41.1429" height="41.1429" rx="20.5714" fill="#1279FF" fill-opacity="0.1"/>
<path d="M74.0832 56.3172L70.4302 58.2155L65.9859 60.4782C65.903 60.5244 65.8097 60.5487 65.7147 60.5487C65.6198 60.5487 65.5264 60.5244 65.4435 60.4782L61.0003 58.2155L57.3463 56.3172C57.2471 56.267 57.1638 56.1903 57.1056 56.0957C57.0474 56.001 57.0166 55.892 57.0166 55.7809C57.0166 55.6698 57.0474 55.5608 57.1056 55.4661C57.1638 55.3715 57.2471 55.2948 57.3463 55.2446L65.4557 51.2729C65.5361 51.2325 65.6248 51.2114 65.7147 51.2114C65.8047 51.2114 65.8934 51.2325 65.9738 51.2729L74.0832 55.2446C74.1823 55.2948 74.2656 55.3715 74.3238 55.4661C74.382 55.5608 74.4128 55.6698 74.4128 55.7809C74.4128 55.892 74.382 56.001 74.3238 56.0957C74.2656 56.1903 74.1823 56.267 74.0832 56.3172Z" stroke="#1279FF" stroke-width="1.51786" stroke-linecap="round" stroke-linejoin="round"/>
<path d="M60.9992 58.2156L57.3463 59.9591C57.2471 60.0093 57.1638 60.086 57.1056 60.1806C57.0474 60.2753 57.0166 60.3843 57.0166 60.4954C57.0166 60.6065 57.0474 60.7155 57.1056 60.8102C57.1638 60.9048 57.2471 60.9815 57.3463 61.0317L60.9992 62.93L65.4435 65.1927C65.5264 65.2389 65.6198 65.2632 65.7147 65.2632C65.8097 65.2632 65.903 65.2389 65.9859 65.1927L70.4292 62.93L74.0832 61.0327C74.1711 60.979 74.2438 60.9037 74.2942 60.8138C74.3446 60.724 74.3711 60.6227 74.3711 60.5197C74.3711 60.4167 74.3446 60.3154 74.2942 60.2255C74.2438 60.1357 74.1711 60.0603 74.0832 60.0066L70.4302 58.2156" stroke="#1279FF" stroke-width="1.51786" stroke-linecap="round" stroke-linejoin="round"/>
<path d="M60.9992 62.929L57.3463 64.6745C57.2471 64.7247 57.1638 64.8014 57.1056 64.896C57.0474 64.9907 57.0166 65.0997 57.0166 65.2108C57.0166 65.3219 57.0474 65.4309 57.1056 65.5256C57.1638 65.6202 57.2471 65.6969 57.3463 65.7471L65.4435 69.8605C65.5264 69.9068 65.6198 69.931 65.7147 69.931C65.8097 69.931 65.903 69.9068 65.9859 69.8605L74.0832 65.7471C74.1711 65.6934 74.2438 65.6181 74.2942 65.5282C74.3446 65.4384 74.3711 65.3371 74.3711 65.2341C74.3711 65.1311 74.3446 65.0298 74.2942 64.9399C74.2438 64.8501 74.1711 64.7747 74.0832 64.721L70.4302 62.93" stroke="#1279FF" stroke-width="1.51786" stroke-linecap="round" stroke-linejoin="round"/>
<path d="M107.632 65.7501C107.116 65.7501 106.617 65.6701 106.137 65.5101C105.657 65.3455 105.237 65.1123 104.876 64.8106C104.519 64.5089 104.265 64.1501 104.114 63.7341L105.191 63.3295C105.282 63.5855 105.452 63.8095 105.698 64.0015C105.95 64.1889 106.245 64.3352 106.583 64.4403C106.921 64.5455 107.271 64.5981 107.632 64.5981C108.044 64.5981 108.425 64.5318 108.777 64.3992C109.134 64.2621 109.422 64.0723 109.641 63.8301C109.861 63.5878 109.97 63.3043 109.97 62.9798C109.97 62.6461 109.856 62.3741 109.628 62.1638C109.399 61.9489 109.106 61.7798 108.75 61.6563C108.393 61.5283 108.021 61.4301 107.632 61.3615C106.969 61.2518 106.375 61.0963 105.849 60.8952C105.328 60.6895 104.914 60.4038 104.608 60.0381C104.306 59.6723 104.156 59.1901 104.156 58.5912C104.156 58.0335 104.316 57.5466 104.636 57.1306C104.96 56.7146 105.388 56.3923 105.918 56.1638C106.448 55.9352 107.02 55.8209 107.632 55.8209C108.14 55.8209 108.631 55.9009 109.106 56.0609C109.586 56.2163 110.009 56.4449 110.375 56.7466C110.741 57.0483 111.004 57.4163 111.164 57.8506L110.073 58.2483C109.982 57.9878 109.81 57.7638 109.559 57.5763C109.312 57.3843 109.02 57.2381 108.681 57.1375C108.348 57.0323 107.998 56.9798 107.632 56.9798C107.225 56.9752 106.846 57.0415 106.494 57.1786C106.142 57.3158 105.856 57.5055 105.637 57.7478C105.417 57.9901 105.308 58.2712 105.308 58.5912C105.308 58.9752 105.408 59.2701 105.609 59.4758C105.815 59.6769 106.094 59.8278 106.446 59.9283C106.798 60.0289 107.193 60.1181 107.632 60.1958C108.254 60.3009 108.83 60.4678 109.36 60.6963C109.89 60.9203 110.316 61.2198 110.636 61.5946C110.96 61.9695 111.122 62.4312 111.122 62.9798C111.122 63.5375 110.96 64.0243 110.636 64.4403C110.316 64.8563 109.89 65.1786 109.36 65.4072C108.83 65.6358 108.254 65.7501 107.632 65.7501ZM115.572 65.7501C114.941 65.7501 114.365 65.5878 113.844 65.2632C113.328 64.9386 112.914 64.5043 112.603 63.9603C112.297 63.4118 112.144 62.8061 112.144 62.1432C112.144 61.6403 112.233 61.1718 112.411 60.7375C112.589 60.2986 112.834 59.9146 113.145 59.5855C113.46 59.2518 113.826 58.9912 114.242 58.8038C114.658 58.6163 115.101 58.5226 115.572 58.5226C116.203 58.5226 116.777 58.6849 117.293 59.0095C117.815 59.3341 118.228 59.7706 118.535 60.3192C118.845 60.8678 119.001 61.4758 119.001 62.1432C119.001 62.6415 118.912 63.1078 118.733 63.5421C118.555 63.9763 118.308 64.3603 117.993 64.6941C117.682 65.0232 117.319 65.2815 116.903 65.4689C116.491 65.6563 116.048 65.7501 115.572 65.7501ZM115.572 64.5981C116.002 64.5981 116.388 64.4861 116.731 64.2621C117.079 64.0335 117.351 63.7341 117.547 63.3638C117.748 62.9889 117.849 62.5821 117.849 62.1432C117.849 61.6952 117.746 61.2838 117.54 60.9089C117.339 60.5341 117.067 60.2346 116.724 60.0106C116.381 59.7866 115.997 59.6746 115.572 59.6746C115.143 59.6746 114.756 59.7889 114.413 60.0175C114.071 60.2415 113.799 60.5409 113.597 60.9158C113.396 61.2906 113.296 61.6998 113.296 62.1432C113.296 62.6003 113.399 63.0163 113.604 63.3912C113.81 63.7615 114.087 64.0563 114.434 64.2758C114.781 64.4906 115.161 64.5981 115.572 64.5981ZM123.524 65.5718V58.7146H124.676V59.5718C124.918 59.2518 125.222 58.9981 125.588 58.8106C125.958 58.6186 126.36 58.5226 126.795 58.5226C127.302 58.5226 127.766 58.6461 128.187 58.8929C128.607 59.1398 128.939 59.4666 129.181 59.8735C129.423 59.4666 129.752 59.1398 130.168 58.8929C130.589 58.6461 131.051 58.5226 131.554 58.5226C132.07 58.5226 132.539 58.6483 132.959 58.8998C133.38 59.1466 133.714 59.4803 133.96 59.9009C134.212 60.3215 134.338 60.7901 134.338 61.3066V65.5718H133.186V61.5809C133.186 61.2426 133.103 60.9295 132.939 60.6415C132.774 60.3535 132.552 60.1226 132.274 59.9489C131.995 59.7752 131.686 59.6883 131.348 59.6883C131.01 59.6883 130.701 59.7706 130.422 59.9352C130.143 60.0952 129.922 60.3192 129.757 60.6072C129.592 60.8906 129.51 61.2152 129.51 61.5809V65.5718H128.358V61.5809C128.358 61.2152 128.276 60.8906 128.111 60.6072C127.947 60.3192 127.723 60.0952 127.439 59.9352C127.16 59.7706 126.852 59.6883 126.514 59.6883C126.18 59.6883 125.871 59.7752 125.588 59.9489C125.309 60.1226 125.087 60.3535 124.923 60.6415C124.758 60.9295 124.676 61.2426 124.676 61.5809V65.5718H123.524ZM135.437 62.9661V58.7146H136.589V62.7123C136.589 63.0598 136.674 63.3752 136.843 63.6586C137.012 63.9421 137.238 64.1683 137.522 64.3375C137.81 64.5021 138.125 64.5843 138.468 64.5843C138.815 64.5843 139.129 64.5021 139.407 64.3375C139.691 64.1683 139.917 63.9421 140.086 63.6586C140.255 63.3752 140.34 63.0598 140.34 62.7123V58.7146H141.492L141.499 65.5718H140.347L140.34 64.7009C140.098 65.0209 139.791 65.2769 139.421 65.4689C139.051 65.6563 138.651 65.7501 138.221 65.7501C137.709 65.7501 137.241 65.6266 136.815 65.3798C136.395 65.1283 136.059 64.7923 135.807 64.3718C135.561 63.9512 135.437 63.4826 135.437 62.9661ZM147.534 63.7615L148.563 64.3169C148.252 64.7512 147.856 65.0986 147.376 65.3592C146.901 65.6198 146.384 65.7501 145.827 65.7501C145.196 65.7501 144.62 65.5878 144.099 65.2632C143.582 64.9386 143.168 64.5043 142.858 63.9603C142.551 63.4118 142.398 62.8061 142.398 62.1432C142.398 61.6403 142.487 61.1718 142.666 60.7375C142.844 60.2986 143.088 59.9146 143.399 59.5855C143.715 59.2518 144.08 58.9912 144.496 58.8038C144.912 58.6163 145.356 58.5226 145.827 58.5226C146.384 58.5226 146.901 58.6529 147.376 58.9135C147.856 59.1741 148.252 59.5238 148.563 59.9626L147.534 60.5181C147.315 60.2483 147.054 60.0403 146.752 59.8941C146.451 59.7478 146.142 59.6746 145.827 59.6746C145.402 59.6746 145.015 59.7889 144.668 60.0175C144.325 60.2415 144.053 60.5409 143.852 60.9158C143.651 61.2906 143.55 61.6998 143.55 62.1432C143.55 62.5866 143.651 62.9958 143.852 63.3706C144.058 63.7409 144.332 64.0381 144.675 64.2621C145.022 64.4861 145.406 64.5981 145.827 64.5981C146.165 64.5981 146.483 64.5203 146.78 64.3649C147.077 64.2095 147.328 64.0083 147.534 63.7615ZM155.742 61.3066V65.5718H154.59V61.5603C154.59 61.2129 154.505 60.8975 154.336 60.6141C154.167 60.3306 153.941 60.1066 153.657 59.9421C153.374 59.7729 153.058 59.6883 152.711 59.6883C152.368 59.6883 152.053 59.7729 151.765 59.9421C151.481 60.1066 151.255 60.3306 151.086 60.6141C150.917 60.8975 150.832 61.2129 150.832 61.5603V65.5718H149.68V55.2861H150.832V59.5718C151.074 59.2518 151.381 58.9981 151.751 58.8106C152.121 58.6186 152.524 58.5226 152.958 58.5226C153.47 58.5226 153.936 58.6483 154.357 58.8998C154.782 59.1466 155.118 59.4803 155.365 59.9009C155.616 60.3215 155.742 60.7901 155.742 61.3066ZM160.408 65.5718V58.7146H161.56V59.5718C161.802 59.2518 162.106 58.9981 162.472 58.8106C162.842 58.6186 163.244 58.5226 163.679 58.5226C164.186 58.5226 164.65 58.6461 165.071 58.8929C165.491 59.1398 165.823 59.4666 166.065 59.8735C166.307 59.4666 166.636 59.1398 167.052 58.8929C167.473 58.6461 167.935 58.5226 168.438 58.5226C168.954 58.5226 169.423 58.6483 169.843 58.8998C170.264 59.1466 170.598 59.4803 170.844 59.9009C171.096 60.3215 171.222 60.7901 171.222 61.3066V65.5718H170.07V61.5809C170.07 61.2426 169.987 60.9295 169.823 60.6415C169.658 60.3535 169.436 60.1226 169.158 59.9489C168.879 59.7752 168.57 59.6883 168.232 59.6883C167.894 59.6883 167.585 59.7706 167.306 59.9352C167.027 60.0952 166.806 60.3192 166.641 60.6072C166.476 60.8906 166.394 61.2152 166.394 61.5809V65.5718H165.242V61.5809C165.242 61.2152 165.16 60.8906 164.995 60.6072C164.831 60.3192 164.607 60.0952 164.323 59.9352C164.044 59.7706 163.736 59.6883 163.398 59.6883C163.064 59.6883 162.755 59.7752 162.472 59.9489C162.193 60.1226 161.971 60.3535 161.807 60.6415C161.642 60.9295 161.56 61.2426 161.56 61.5809V65.5718H160.408ZM175.479 65.7501C174.848 65.7501 174.272 65.5878 173.751 65.2632C173.234 64.9386 172.82 64.5043 172.509 63.9603C172.203 63.4118 172.05 62.8061 172.05 62.1432C172.05 61.6403 172.139 61.1718 172.317 60.7375C172.496 60.2986 172.74 59.9146 173.051 59.5855C173.367 59.2518 173.732 58.9912 174.148 58.8038C174.564 58.6163 175.008 58.5226 175.479 58.5226C176.109 58.5226 176.683 58.6849 177.2 59.0095C177.721 59.3341 178.135 59.7706 178.441 60.3192C178.752 60.8678 178.907 61.4758 178.907 62.1432C178.907 62.6415 178.818 63.1078 178.64 63.5421C178.461 63.9763 178.215 64.3603 177.899 64.6941C177.588 65.0232 177.225 65.2815 176.809 65.4689C176.397 65.6563 175.954 65.7501 175.479 65.7501ZM175.479 64.5981C175.908 64.5981 176.295 64.4861 176.637 64.2621C176.985 64.0335 177.257 63.7341 177.453 63.3638C177.655 62.9889 177.755 62.5821 177.755 62.1432C177.755 61.6952 177.652 61.2838 177.447 60.9089C177.245 60.5341 176.973 60.2346 176.631 60.0106C176.288 59.7866 175.904 59.6746 175.479 59.6746C175.049 59.6746 174.663 59.7889 174.32 60.0175C173.977 60.2415 173.705 60.5409 173.504 60.9158C173.303 61.2906 173.202 61.6998 173.202 62.1432C173.202 62.6003 173.305 63.0163 173.511 63.3912C173.716 63.7615 173.993 64.0563 174.34 64.2758C174.688 64.4906 175.067 64.5981 175.479 64.5981ZM180.042 65.5718V58.7146H181.194V59.5718C181.436 59.2518 181.742 58.9981 182.113 58.8106C182.483 58.6186 182.885 58.5226 183.319 58.5226C183.585 58.5226 183.841 58.5569 184.087 58.6255L183.621 59.7775C183.434 59.7181 183.251 59.6883 183.073 59.6883C182.73 59.6883 182.414 59.7729 182.126 59.9421C181.843 60.1066 181.617 60.3306 181.447 60.6141C181.278 60.8975 181.194 61.2129 181.194 61.5603V65.5718H180.042ZM187.599 65.7501C186.968 65.7501 186.392 65.5878 185.871 65.2632C185.355 64.9386 184.941 64.5043 184.63 63.9603C184.324 63.4118 184.17 62.8061 184.17 62.1432C184.17 61.6403 184.26 61.1718 184.438 60.7375C184.616 60.2986 184.861 59.9146 185.172 59.5855C185.487 59.2518 185.853 58.9912 186.269 58.8038C186.685 58.6163 187.128 58.5226 187.599 58.5226C188.116 58.5226 188.589 58.6278 189.019 58.8381C189.453 59.0438 189.823 59.3318 190.129 59.7021C190.44 60.0723 190.671 60.5021 190.822 60.9912C190.977 61.4803 191.035 62.0038 190.993 62.5615H185.398C185.453 62.9501 185.581 63.2975 185.782 63.6038C185.983 63.9055 186.239 64.1455 186.55 64.3238C186.865 64.5021 187.215 64.5935 187.599 64.5981C188.011 64.5981 188.383 64.4929 188.717 64.2826C189.051 64.0678 189.32 63.7752 189.526 63.4049L190.699 63.6792C190.424 64.2872 190.011 64.7855 189.457 65.1741C188.904 65.5581 188.285 65.7501 187.599 65.7501ZM185.364 61.6563H189.835C189.798 61.2723 189.675 60.9226 189.464 60.6072C189.254 60.2872 188.987 60.0312 188.662 59.8392C188.337 59.6472 187.983 59.5512 187.599 59.5512C187.215 59.5512 186.863 59.6449 186.543 59.8323C186.223 60.0198 185.958 60.2735 185.748 60.5935C185.542 60.9089 185.414 61.2632 185.364 61.6563Z" fill="black"/>
</g>
</g>
<defs>
<filter id="filter0_d_72_455" x="0.57122" y="0.571709" width="271.714" height="120" filterUnits="userSpaceOnUse" color-interpolation-filters="sRGB">
<feFlood flood-opacity="0" result="BackgroundImageFix"/>
<feColorMatrix in="SourceAlpha" type="matrix" values="0 0 0 0 0 0 0 0 0 0 0 0 0 0 0 0 0 0 127 0" result="hardAlpha"/>
<feOffset/>
<feGaussianBlur stdDeviation="17.1429"/>
<feComposite in2="hardAlpha" operator="out"/>
<feColorMatrix type="matrix" values="0 0 0 0 0.117647 0 0 0 0 0.117647 0 0 0 0 0.117647 0 0 0 0.2 0"/>
<feBlend mode="normal" in2="BackgroundImageFix" result="effect1_dropShadow_72_455"/>
<feBlend mode="normal" in="SourceGraphic" in2="effect1_dropShadow_72_455" result="shape"/>
</filter>
<clipPath id="clip0_72_455">
<rect x="34.8569" y="34.8574" width="203.143" height="51.4286" rx="10.2857" fill="white"/>
</clipPath>
</defs>
</svg>
