<svg width="25" height="25" viewBox="0 0 25 25" fill="none" xmlns="http://www.w3.org/2000/svg">
<path d="M22.3055 10.7026H21.5V10.6611H12.5V14.6611H18.1515C17.327 16.9896 15.1115 18.6611 12.5 18.6611C9.1865 18.6611 6.5 15.9746 6.5 12.6611C6.5 9.34763 9.1865 6.66113 12.5 6.66113C14.0295 6.66113 15.421 7.23813 16.4805 8.18063L19.309 5.35213C17.523 3.68763 15.134 2.66113 12.5 2.66113C6.9775 2.66113 2.5 7.13863 2.5 12.6611C2.5 18.1836 6.9775 22.6611 12.5 22.6611C18.0225 22.6611 22.5 18.1836 22.5 12.6611C22.5 11.9906 22.431 11.3361 22.3055 10.7026Z" fill="#FFC107"/>
<path d="M3.65234 8.00663L6.93784 10.4161C7.82684 8.21513 9.97984 6.66113 12.4993 6.66113C14.0288 6.66113 15.4203 7.23813 16.4798 8.18063L19.3083 5.35213C17.5223 3.68763 15.1333 2.66113 12.4993 2.66113C8.65834 2.66113 5.32734 4.82963 3.65234 8.00663Z" fill="#FF3D00"/>
<path d="M12.5 22.6611C15.083 22.6611 17.43 21.6726 19.2045 20.0651L16.1095 17.4461C15.072 18.2356 13.8038 18.6625 12.5 18.6611C9.89903 18.6611 7.69053 17.0026 6.85853 14.6881L3.59753 17.2006C5.25253 20.4391 8.61353 22.6611 12.5 22.6611Z" fill="#4CAF50"/>
<path d="M22.3055 10.7026H21.5V10.6611H12.5V14.6611H18.1515C17.7571 15.7693 17.0467 16.7377 16.108 17.4466L16.1095 17.4456L19.2045 20.0646C18.9855 20.2636 22.5 17.6611 22.5 12.6611C22.5 11.9906 22.431 11.3361 22.3055 10.7026Z" fill="#1976D2"/>
</svg>
