<svg width="60" height="60" viewBox="0 0 60 60" fill="none" xmlns="http://www.w3.org/2000/svg">
<rect width="60" height="60" rx="8" fill="url(#paint0_linear_163_212)" fill-opacity="0.2"/>
<path d="M25.5 20C24.5729 20.0037 23.6848 20.3736 23.0292 21.0292C22.3736 21.6848 22.0037 22.5729 22 23.5C22 25.422 23.578 27 25.5 27C27.422 27 29 25.422 29 23.5C29 21.578 27.422 20 25.5 20ZM34.5 20C33.5729 20.0037 32.6848 20.3736 32.0292 21.0292C31.3736 21.6848 31.0037 22.5729 31 23.5C31 25.422 32.578 27 34.5 27C36.422 27 38 25.422 38 23.5C38 21.578 36.422 20 34.5 20ZM25.5 22C26.34 22 27 22.66 27 23.5C27 24.34 26.34 25 25.5 25C24.66 25 24 24.34 24 23.5C24 22.66 24.66 22 25.5 22ZM34.5 22C35.34 22 36 22.66 36 23.5C36 24.34 35.34 25 34.5 25C33.66 25 33 24.34 33 23.5C33 22.66 33.66 22 34.5 22ZM21 26C18.8 26 17 27.8 17 30C17 31.113 17.477 32.117 18.219 32.844C17.5386 33.3036 16.9807 33.9224 16.594 34.6468C16.2073 35.3711 16.0034 36.1789 16 37H18C18 35.332 19.332 34 21 34C22.668 34 24 35.332 24 37H26C25.9966 36.1789 25.7927 35.3711 25.406 34.6468C25.0193 33.9224 24.4614 33.3036 23.781 32.844C24.523 32.117 25 31.114 25 30C25 27.8 23.2 26 21 26ZM26 37C25.375 37.836 25 38.887 25 40H27C27 38.332 28.332 37 30 37C31.668 37 33 38.332 33 40H35C34.9986 38.9184 34.6478 37.8662 34 37C33.66 36.547 33.25 36.16 32.781 35.844C33.523 35.117 34 34.114 34 33C34 30.8 32.2 29 30 29C27.8 29 26 30.8 26 33C26 34.113 26.477 35.117 27.219 35.844C26.7504 36.1578 26.3382 36.5487 26 37ZM34 37H36C36 35.332 37.332 34 39 34C40.668 34 42 35.332 42 37H44C43.9966 36.1789 43.7927 35.3711 43.406 34.6468C43.0193 33.9224 42.4614 33.3036 41.781 32.844C42.523 32.117 43 31.114 43 30C43 27.8 41.2 26 39 26C36.8 26 35 27.8 35 30C35 31.113 35.477 32.117 36.219 32.844C35.5386 33.3036 34.9807 33.9224 34.594 34.6468C34.2073 35.3711 34.0034 36.1789 34 37ZM21 28C22.117 28 23 28.883 23 30C23 31.117 22.117 32 21 32C19.883 32 19 31.117 19 30C19 28.883 19.883 28 21 28ZM39 28C40.117 28 41 28.883 41 30C41 31.117 40.117 32 39 32C37.883 32 37 31.117 37 30C37 28.883 37.883 28 39 28ZM30 31C31.117 31 32 31.883 32 33C32 34.117 31.117 35 30 35C28.883 35 28 34.117 28 33C28 31.883 28.883 31 30 31Z" fill="url(#paint1_linear_163_212)"/>
<defs>
<linearGradient id="paint0_linear_163_212" x1="0" y1="30" x2="60" y2="30" gradientUnits="userSpaceOnUse">
<stop stop-color="#8E5EFF"/>
<stop offset="1" stop-color="#4596FF"/>
</linearGradient>
<linearGradient id="paint1_linear_163_212" x1="16" y1="30" x2="44" y2="30" gradientUnits="userSpaceOnUse">
<stop stop-color="#8E5EFF"/>
<stop offset="1" stop-color="#4596FF"/>
</linearGradient>
</defs>
</svg>
