<svg width="19" height="19" viewBox="0 0 19 19" fill="none" xmlns="http://www.w3.org/2000/svg">
<path d="M5.38191 11.2428L4.264 16.0836C4.22939 16.2302 4.23978 16.3838 4.29382 16.5244C4.34787 16.665 4.44305 16.786 4.56694 16.8716C4.69083 16.9573 4.83767 17.0036 4.98828 17.0045C5.13889 17.0053 5.28627 16.9608 5.41117 16.8766L9.49641 14.1531L13.5817 16.8766C13.7095 16.9615 13.8602 17.0052 14.0135 17.0018C14.1669 16.9984 14.3156 16.9482 14.4395 16.8578C14.5635 16.7674 14.6568 16.6413 14.7069 16.4963C14.757 16.3513 14.7615 16.1945 14.7198 16.0468L13.3476 11.2451L16.7508 8.18246C16.8598 8.08431 16.9377 7.95637 16.9747 7.81446C17.0118 7.67254 17.0064 7.52288 16.9593 7.38397C16.9122 7.24507 16.8254 7.12301 16.7097 7.0329C16.594 6.9428 16.4544 6.88859 16.3082 6.87698L12.0308 6.53635L10.1799 2.43911C10.1209 2.30717 10.025 2.19514 9.90367 2.11653C9.78239 2.03792 9.64095 1.99609 9.49641 1.99609C9.35188 1.99609 9.21044 2.03792 9.08916 2.11653C8.96787 2.19514 8.87193 2.30717 8.81291 2.43911L6.96199 6.53635L2.68467 6.87623C2.54096 6.88761 2.40358 6.94016 2.28895 7.02758C2.17432 7.115 2.0873 7.2336 2.03831 7.36918C1.98932 7.50476 1.98042 7.65159 2.01269 7.79209C2.04495 7.93259 2.11702 8.06083 2.22025 8.16145L5.38191 11.2428ZM7.52244 7.99714C7.65636 7.98659 7.78498 7.9402 7.89481 7.86285C8.00463 7.7855 8.09163 7.68002 8.14667 7.55748L9.49641 4.57064L10.8462 7.55748C10.9012 7.68002 10.9882 7.7855 11.098 7.86285C11.2079 7.9402 11.3365 7.98659 11.4704 7.99714L14.4505 8.23347L11.9963 10.4423C11.7833 10.6344 11.6985 10.93 11.7765 11.2061L12.7166 14.496L9.91357 12.6271C9.79054 12.5445 9.64571 12.5004 9.49754 12.5004C9.34937 12.5004 9.20454 12.5445 9.08151 12.6271L6.15244 14.58L6.94023 11.1693C6.96912 11.0439 6.96524 10.9131 6.92897 10.7896C6.89271 10.6661 6.82527 10.554 6.73315 10.464L4.45382 8.24173L7.52244 7.99714Z" fill="#FF9B36"/>
</svg>
