<svg width="201" height="52" viewBox="0 0 201 52" fill="none" xmlns="http://www.w3.org/2000/svg">
<rect x="9.14307" y="5.42871" width="41.1429" height="41.1429" rx="20.5714" fill="url(#paint0_linear_72_447)" fill-opacity="0.1"/>
<path d="M27.8363 16.8966C27.7848 16.8953 27.7335 16.9043 27.6855 16.9232C27.6375 16.9421 27.5938 16.9704 27.557 17.0066C27.5202 17.0427 27.491 17.0858 27.4712 17.1334C27.4514 17.181 27.4414 17.2321 27.4417 17.2837V18.7863C27.4417 18.9988 27.6086 19.1658 27.8211 19.1658V19.181C32.5493 19.3631 36.3515 23.1654 36.5336 27.8935H36.5488C36.5488 28.106 36.7158 28.2729 36.9283 28.2729H38.431C38.6511 28.2729 38.8256 28.0908 38.818 27.8783C38.6131 21.9131 33.8015 17.1015 27.8363 16.8966ZM27.8363 20.6913C27.785 20.6907 27.734 20.7002 27.6863 20.7193C27.6387 20.7385 27.5953 20.7669 27.5586 20.8028C27.522 20.8388 27.4927 20.8816 27.4727 20.9289C27.4526 20.9762 27.4421 21.027 27.4417 21.0783V22.581C27.4417 22.7935 27.6086 22.9604 27.8211 22.9604V22.9832C30.4546 23.1578 32.5569 25.26 32.7314 27.8935H32.7542C32.7542 28.106 32.9211 28.2729 33.1336 28.2729H34.6363C34.8488 28.2729 35.031 28.0908 35.0234 27.8783C34.8185 24.0078 31.7069 20.8962 27.8363 20.6913ZM20.9908 21.4426C20.7783 21.4426 20.6113 21.6096 20.6113 21.8221V30.1703C20.6113 32.8872 22.8274 35.1033 25.5444 35.1033C28.2613 35.1033 30.4774 32.8872 30.4774 30.1703C30.4774 27.4533 28.2613 25.2372 25.5444 25.2372C25.3319 25.2372 25.1649 25.4042 25.1649 25.6167V27.8935C25.1649 28.106 25.3319 28.2729 25.5444 28.2729C26.0476 28.2729 26.5302 28.4728 26.886 28.8287C27.2418 29.1845 27.4417 29.6671 27.4417 30.1703C27.4417 30.6735 27.2418 31.1561 26.886 31.5119C26.5302 31.8677 26.0476 32.0676 25.5444 32.0676C25.2952 32.0676 25.0485 32.0185 24.8183 31.9232C24.5881 31.8278 24.3789 31.6881 24.2028 31.5119C24.0266 31.3357 23.8868 31.1265 23.7915 30.8963C23.6961 30.6662 23.647 30.4194 23.647 30.1703V21.8221C23.647 21.6096 23.4801 21.4426 23.2676 21.4426H20.9908Z" fill="url(#paint1_linear_72_447)"/>
<path d="M68.2516 31.0002V21.4002H71.5636C72.039 21.4002 72.471 21.4985 72.8596 21.6951C73.2527 21.8871 73.5636 22.1682 73.7921 22.5385C74.0207 22.9088 74.135 23.3522 74.135 23.8688C74.135 24.1477 74.087 24.4174 73.991 24.678C73.8996 24.934 73.7716 25.1557 73.607 25.3431C73.447 25.526 73.2641 25.6494 73.0584 25.7134C73.3464 25.7865 73.591 25.9168 73.7921 26.1042C73.9933 26.2871 74.1556 26.502 74.279 26.7488C74.407 26.9957 74.4984 27.254 74.5533 27.5237C74.6081 27.7934 74.6356 28.054 74.6356 28.3054C74.6356 28.8357 74.5144 29.3042 74.2721 29.7111C74.0344 30.1134 73.7144 30.4288 73.3121 30.6574C72.9099 30.886 72.4664 31.0002 71.9819 31.0002H68.2516ZM69.4036 29.9854H71.879C72.1944 29.9854 72.4801 29.9054 72.7361 29.7454C72.9967 29.5808 73.2047 29.3568 73.3601 29.0734C73.5156 28.79 73.5933 28.47 73.5933 28.1134C73.5933 27.798 73.5156 27.5008 73.3601 27.222C73.2047 26.9385 72.9967 26.71 72.7361 26.5362C72.4801 26.3625 72.1944 26.2757 71.879 26.2757H69.4036V29.9854ZM69.4036 25.2814H71.4539C71.8744 25.2814 72.2333 25.158 72.5304 24.9111C72.8321 24.6597 72.983 24.31 72.983 23.862C72.983 23.3774 72.8321 23.0162 72.5304 22.7785C72.2333 22.5362 71.8744 22.4151 71.4539 22.4151H69.4036V25.2814ZM75.8453 31.0002V20.7145H76.9973V31.0002H75.8453ZM81.5946 31.1785C80.9637 31.1785 80.3877 31.0162 79.8666 30.6917C79.35 30.3671 78.9363 29.9328 78.6255 29.3888C78.3192 28.8402 78.166 28.2345 78.166 27.5717C78.166 27.0688 78.2552 26.6002 78.4335 26.166C78.6117 25.7271 78.8563 25.3431 79.1672 25.014C79.4826 24.6802 79.8483 24.4197 80.2643 24.2322C80.6803 24.0448 81.1237 23.9511 81.5946 23.9511C82.2255 23.9511 82.7992 24.1134 83.3157 24.438C83.8369 24.7625 84.2506 25.1991 84.5569 25.7477C84.8677 26.2962 85.0232 26.9042 85.0232 27.5717C85.0232 28.07 84.934 28.5362 84.7557 28.9705C84.5775 29.4048 84.3306 29.7888 84.0152 30.1225C83.7043 30.4517 83.3409 30.71 82.9249 30.8974C82.5135 31.0848 82.07 31.1785 81.5946 31.1785ZM81.5946 30.0265C82.0243 30.0265 82.4106 29.9145 82.7535 29.6905C83.1009 29.462 83.3729 29.1625 83.5695 28.7922C83.7706 28.4174 83.8712 28.0105 83.8712 27.5717C83.8712 27.1237 83.7683 26.7122 83.5626 26.3374C83.3615 25.9625 83.0895 25.6631 82.7466 25.4391C82.4037 25.2151 82.0197 25.1031 81.5946 25.1031C81.1649 25.1031 80.7786 25.2174 80.4357 25.446C80.0929 25.67 79.8209 25.9694 79.6197 26.3442C79.4186 26.7191 79.318 27.1282 79.318 27.5717C79.318 28.0288 79.4209 28.4448 79.6266 28.8197C79.8323 29.19 80.1089 29.4848 80.4563 29.7042C80.8037 29.9191 81.1832 30.0265 81.5946 30.0265ZM91.4731 24.1431H92.6251V31.2197C92.6251 31.6722 92.5268 32.0928 92.3302 32.4814C92.1382 32.8745 91.8776 33.2151 91.5485 33.5031C91.2194 33.7957 90.8445 34.022 90.4239 34.182C90.0034 34.3465 89.5645 34.4288 89.1074 34.4288C88.6319 34.4288 88.1725 34.3214 87.7291 34.1065C87.2856 33.8962 86.8971 33.6128 86.5634 33.2562C86.2342 32.9042 85.9965 32.5088 85.8502 32.07L86.9062 31.59C86.9931 31.9054 87.1485 32.1888 87.3725 32.4402C87.6011 32.6962 87.8662 32.8974 88.1679 33.0437C88.4742 33.1945 88.7874 33.27 89.1074 33.27C89.4091 33.27 89.6994 33.2174 89.9782 33.1122C90.2616 33.0071 90.5154 32.8608 90.7394 32.6734C90.9679 32.4905 91.1462 32.2734 91.2742 32.022C91.4068 31.7751 91.4731 31.5077 91.4731 31.2197V29.8551C91.2399 30.2482 90.9314 30.5682 90.5474 30.8151C90.1679 31.0574 89.7245 31.1785 89.2171 31.1785C88.7325 31.1785 88.2776 31.0848 87.8525 30.8974C87.4274 30.71 87.0548 30.4517 86.7348 30.1225C86.4148 29.7888 86.1634 29.4048 85.9805 28.9705C85.7976 28.5362 85.7062 28.07 85.7062 27.5717C85.7062 27.0734 85.7976 26.6071 85.9805 26.1728C86.1634 25.734 86.4148 25.35 86.7348 25.0208C87.0548 24.6871 87.4274 24.4265 87.8525 24.2391C88.2776 24.0517 88.7325 23.958 89.2171 23.958C89.7245 23.958 90.1679 24.0791 90.5474 24.3214C90.9314 24.5637 91.2399 24.8837 91.4731 25.2814V24.1431ZM89.2239 30.0608C89.6674 30.0608 90.0514 29.9465 90.3759 29.718C90.7051 29.4894 90.9588 29.1854 91.1371 28.806C91.3154 28.4265 91.4045 28.0151 91.4045 27.5717C91.4045 27.1145 91.3131 26.6985 91.1302 26.3237C90.9519 25.9442 90.6982 25.6425 90.3691 25.4185C90.0445 25.19 89.6628 25.0757 89.2239 25.0757C88.7942 25.0757 88.4011 25.1877 88.0445 25.4117C87.6879 25.6357 87.4045 25.9374 87.1942 26.3168C86.9885 26.6917 86.8856 27.11 86.8856 27.5717C86.8856 28.0334 86.9908 28.454 87.2011 28.8334C87.4159 29.2082 87.6994 29.5077 88.0514 29.7317C88.4079 29.9511 88.7988 30.0608 89.2239 30.0608ZM100.785 21.4002H102.177L105.667 31.0002H104.446L103.733 29.0391H99.228L98.5217 31.0002H97.2942L100.785 21.4002ZM99.6531 27.8871H103.308L101.477 22.8745L99.6531 27.8871ZM106.85 31.0002V24.1431H108.002V25.0002C108.244 24.6802 108.55 24.4265 108.921 24.2391C109.291 24.0471 109.693 23.9511 110.127 23.9511C110.393 23.9511 110.649 23.9854 110.895 24.054L110.429 25.206C110.242 25.1465 110.059 25.1168 109.881 25.1168C109.538 25.1168 109.222 25.2014 108.934 25.3705C108.651 25.5351 108.425 25.7591 108.255 26.0425C108.086 26.326 108.002 26.6414 108.002 26.9888V31.0002H106.85ZM115.411 25.2951H113.854L113.847 31.0002H112.695L112.702 25.2951H111.523V24.1431H112.702L112.695 21.99H113.847L113.854 24.1431H115.411V25.2951ZM116.573 24.1431H117.725V31.0002H116.573V24.1431ZM117.163 23.0254C116.98 23.0254 116.827 22.966 116.703 22.8471C116.58 22.7282 116.518 22.5797 116.518 22.4014C116.518 22.2231 116.58 22.0745 116.703 21.9557C116.827 21.8368 116.978 21.7774 117.156 21.7774C117.334 21.7774 117.485 21.8368 117.608 21.9557C117.732 22.0745 117.794 22.2231 117.794 22.4014C117.794 22.5797 117.732 22.7282 117.608 22.8471C117.49 22.966 117.341 23.0254 117.163 23.0254ZM124.003 29.19L125.031 29.7454C124.721 30.1797 124.325 30.5271 123.845 30.7877C123.37 31.0482 122.853 31.1785 122.295 31.1785C121.665 31.1785 121.089 31.0162 120.567 30.6917C120.051 30.3671 119.637 29.9328 119.326 29.3888C119.02 28.8402 118.867 28.2345 118.867 27.5717C118.867 27.0688 118.956 26.6002 119.134 26.166C119.313 25.7271 119.557 25.3431 119.868 25.014C120.183 24.6802 120.549 24.4197 120.965 24.2322C121.381 24.0448 121.825 23.9511 122.295 23.9511C122.853 23.9511 123.37 24.0814 123.845 24.342C124.325 24.6025 124.721 24.9522 125.031 25.3911L124.003 25.9465C123.783 25.6768 123.523 25.4688 123.221 25.3225C122.919 25.1762 122.611 25.1031 122.295 25.1031C121.87 25.1031 121.484 25.2174 121.137 25.446C120.794 25.67 120.522 25.9694 120.321 26.3442C120.119 26.7191 120.019 27.1282 120.019 27.5717C120.019 28.0151 120.119 28.4242 120.321 28.7991C120.526 29.1694 120.801 29.4665 121.143 29.6905C121.491 29.9145 121.875 30.0265 122.295 30.0265C122.634 30.0265 122.951 29.9488 123.249 29.7934C123.546 29.638 123.797 29.4368 124.003 29.19ZM126.149 31.0002V20.7145H127.301V31.0002H126.149ZM131.898 31.1785C131.267 31.1785 130.691 31.0162 130.17 30.6917C129.654 30.3671 129.24 29.9328 128.929 29.3888C128.623 28.8402 128.47 28.2345 128.47 27.5717C128.47 27.0688 128.559 26.6002 128.737 26.166C128.915 25.7271 129.16 25.3431 129.471 25.014C129.786 24.6802 130.152 24.4197 130.568 24.2322C130.984 24.0448 131.427 23.9511 131.898 23.9511C132.415 23.9511 132.888 24.0562 133.318 24.2665C133.752 24.4722 134.122 24.7602 134.428 25.1305C134.739 25.5008 134.97 25.9305 135.121 26.4197C135.276 26.9088 135.334 27.4322 135.292 27.99H129.697C129.752 28.3785 129.88 28.726 130.081 29.0322C130.282 29.334 130.538 29.574 130.849 29.7522C131.164 29.9305 131.514 30.022 131.898 30.0265C132.31 30.0265 132.682 29.9214 133.016 29.7111C133.35 29.4962 133.619 29.2037 133.825 28.8334L134.998 29.1077C134.723 29.7157 134.31 30.214 133.756 30.6025C133.203 30.9865 132.584 31.1785 131.898 31.1785ZM129.663 27.0848H134.134C134.097 26.7008 133.974 26.3511 133.763 26.0357C133.553 25.7157 133.286 25.4597 132.961 25.2677C132.636 25.0757 132.282 24.9797 131.898 24.9797C131.514 24.9797 131.162 25.0734 130.842 25.2608C130.522 25.4482 130.257 25.702 130.047 26.022C129.841 26.3374 129.713 26.6917 129.663 27.0848ZM138.566 31.1305C138.196 31.1168 137.835 31.0482 137.483 30.9248C137.135 30.7968 136.829 30.6254 136.564 30.4105C136.303 30.1911 136.114 29.9397 135.995 29.6562L136.982 29.2311C137.051 29.3865 137.174 29.5328 137.352 29.67C137.531 29.8071 137.736 29.9168 137.97 29.9991C138.203 30.0814 138.438 30.1225 138.676 30.1225C138.927 30.1225 139.163 30.0837 139.382 30.006C139.602 29.9282 139.78 29.814 139.917 29.6631C140.059 29.5077 140.13 29.3225 140.13 29.1077C140.13 28.8791 140.052 28.7008 139.896 28.5728C139.746 28.4402 139.554 28.3374 139.32 28.2642C139.092 28.1865 138.859 28.1134 138.621 28.0448C138.15 27.926 137.73 27.7842 137.359 27.6197C136.989 27.4505 136.696 27.238 136.482 26.982C136.271 26.7214 136.166 26.39 136.166 25.9877C136.166 25.5625 136.283 25.1945 136.516 24.8837C136.754 24.5728 137.064 24.3328 137.448 24.1637C137.832 23.9945 138.244 23.91 138.683 23.91C139.236 23.91 139.741 24.0288 140.198 24.2665C140.655 24.5042 140.996 24.8265 141.22 25.2334L140.294 25.7751C140.216 25.6105 140.098 25.4665 139.938 25.3431C139.778 25.2151 139.595 25.1145 139.389 25.0414C139.183 24.9682 138.973 24.9294 138.758 24.9248C138.493 24.9157 138.244 24.95 138.011 25.0277C137.782 25.1054 137.597 25.2242 137.455 25.3842C137.318 25.5397 137.25 25.734 137.25 25.9671C137.25 26.1957 137.323 26.3694 137.469 26.4882C137.62 26.6071 137.814 26.7031 138.052 26.7762C138.294 26.8448 138.557 26.9248 138.84 27.0162C139.256 27.1488 139.645 27.302 140.006 27.4757C140.367 27.6494 140.658 27.8665 140.877 28.1271C141.101 28.3877 141.211 28.71 141.206 29.094C141.206 29.5145 141.08 29.8825 140.829 30.198C140.578 30.5088 140.251 30.7465 139.848 30.9111C139.451 31.0757 139.023 31.1488 138.566 31.1305Z" fill="black"/>
<defs>
<linearGradient id="paint0_linear_72_447" x1="9.14307" y1="26.0001" x2="50.2859" y2="26.0001" gradientUnits="userSpaceOnUse">
<stop stop-color="#8E5EFF"/>
<stop offset="1" stop-color="#4596FF"/>
</linearGradient>
<linearGradient id="paint1_linear_72_447" x1="20.6113" y1="25.9999" x2="38.8183" y2="25.9999" gradientUnits="userSpaceOnUse">
<stop stop-color="#8E5EFF"/>
<stop offset="1" stop-color="#4596FF"/>
</linearGradient>
</defs>
</svg>
