<svg width="24" height="24" viewBox="0 0 24 24" fill="none" xmlns="http://www.w3.org/2000/svg">
<path d="M12.7499 6C12.7499 5.80109 12.6709 5.61032 12.5303 5.46967C12.3896 5.32902 12.1989 5.25 11.9999 5.25C11.801 5.25 11.6103 5.32902 11.4696 5.46967C11.329 5.61032 11.2499 5.80109 11.2499 6V6.785C10.5628 6.84864 9.88781 7.0068 9.24395 7.255L8.90694 6.643C8.81094 6.46875 8.64964 6.33978 8.45854 6.28446C8.26744 6.22913 8.06219 6.25199 7.88795 6.348C7.7137 6.44401 7.58473 6.6053 7.5294 6.7964C7.47408 6.9875 7.49694 7.19275 7.59295 7.367L7.90495 7.932C7.33229 8.29714 6.80436 8.72807 6.33194 9.216L5.98294 8.924C5.83018 8.79656 5.63305 8.73503 5.43492 8.75294C5.23678 8.77085 5.05388 8.86673 4.92644 9.0195C4.79901 9.17226 4.73748 9.3694 4.75539 9.56753C4.7733 9.76566 4.86918 9.94856 5.02194 10.076L5.36894 10.366C5.1098 10.7263 4.8727 11.102 4.65894 11.491L4.33595 11.329C4.24783 11.2849 4.1519 11.2587 4.05363 11.2517C3.95536 11.2447 3.85667 11.2571 3.76321 11.2883C3.66975 11.3195 3.58334 11.3687 3.50891 11.4333C3.43449 11.4978 3.3735 11.5764 3.32944 11.6645C3.28539 11.7526 3.25912 11.8485 3.25213 11.9468C3.24515 12.0451 3.25759 12.1438 3.28874 12.2372C3.3199 12.3307 3.36915 12.4171 3.4337 12.4915C3.49825 12.566 3.57683 12.6269 3.66494 12.671L4.66495 13.171C4.75779 13.2174 4.85926 13.2441 4.96293 13.2492C5.0666 13.2544 5.17022 13.238 5.26722 13.2011C5.36422 13.1641 5.4525 13.1074 5.52647 13.0346C5.60044 12.9618 5.65849 12.8744 5.69694 12.778L5.70394 12.76L5.73894 12.682C5.7867 12.5768 5.83704 12.4727 5.88994 12.37C6.02994 12.102 6.24295 11.727 6.53695 11.311C7.12895 10.474 8.02194 9.507 9.25495 8.889C10.1068 8.46251 11.0474 8.24355 11.9999 8.25C12.9526 8.24386 13.8932 8.46317 14.7449 8.89C15.9779 9.507 16.8709 10.474 17.4629 11.311C17.7691 11.7436 18.0365 12.2024 18.2619 12.682L18.2959 12.761L18.3029 12.778L18.3039 12.779C18.3427 12.8752 18.401 12.9632 18.4751 13.0357C18.5492 13.1082 18.6375 13.1646 18.7344 13.2012C18.8314 13.2379 18.9349 13.254 19.0385 13.2486C19.142 13.2433 19.2433 13.2165 19.3359 13.17L20.3359 12.67C20.4283 12.6286 20.5113 12.569 20.58 12.4947C20.6487 12.4203 20.7017 12.3329 20.7357 12.2376C20.7697 12.1422 20.784 12.041 20.7779 11.94C20.7717 11.839 20.7452 11.7402 20.6999 11.6498C20.6546 11.5593 20.5914 11.4789 20.5142 11.4134C20.437 11.348 20.3474 11.2989 20.2507 11.269C20.154 11.2391 20.0522 11.2291 19.9516 11.2396C19.8509 11.2501 19.7534 11.2808 19.6649 11.33L19.3409 11.491C19.1272 11.102 18.8901 10.7263 18.6309 10.366L18.9789 10.076C19.1317 9.94843 19.2275 9.7654 19.2454 9.56717C19.2632 9.36895 19.2015 9.17176 19.0739 9.019C18.9464 8.86624 18.7633 8.7704 18.5651 8.75259C18.3669 8.73477 18.1697 8.79643 18.0169 8.924L17.6679 9.216C17.1958 8.72813 16.6682 8.2972 16.0959 7.932L16.4069 7.367C16.503 7.19275 16.5258 6.9875 16.4705 6.7964C16.4152 6.6053 16.2862 6.44401 16.1119 6.348C15.9377 6.25199 15.7324 6.22913 15.5413 6.28446C15.3502 6.33978 15.189 6.46875 15.0929 6.643L14.7559 7.255C14.1121 7.0068 13.437 6.84864 12.7499 6.785V6Z" fill="black"/>
<path d="M8.25 15C8.25 14.0054 8.64509 13.0516 9.34835 12.3483C10.0516 11.6451 11.0054 11.25 12 11.25C12.9946 11.25 13.9484 11.6451 14.6517 12.3483C15.3549 13.0516 15.75 14.0054 15.75 15C15.75 15.9946 15.3549 16.9484 14.6517 17.6517C13.9484 18.3549 12.9946 18.75 12 18.75C11.0054 18.75 10.0516 18.3549 9.34835 17.6517C8.64509 16.9484 8.25 15.9946 8.25 15ZM12 12.75C11.4033 12.75 10.831 12.9871 10.409 13.409C9.98705 13.831 9.75 14.4033 9.75 15C9.75 15.5967 9.98705 16.169 10.409 16.591C10.831 17.0129 11.4033 17.25 12 17.25C12.5967 17.25 13.169 17.0129 13.591 16.591C14.0129 16.169 14.25 15.5967 14.25 15C14.25 14.4033 14.0129 13.831 13.591 13.409C13.169 12.9871 12.5967 12.75 12 12.75Z" fill="black"/>
</svg>
