<svg width="8" height="9" viewBox="0 0 8 9" fill="none" xmlns="http://www.w3.org/2000/svg">
<path d="M5.66667 0.75C6.2192 0.75 6.7491 0.969493 7.13981 1.36019C7.53051 1.7509 7.75 2.2808 7.75 2.83333V6.16667C7.75 6.7192 7.53051 7.2491 7.13981 7.63981C6.7491 8.03051 6.2192 8.25 5.66667 8.25H2.33333C1.7808 8.25 1.2509 8.03051 0.860194 7.63981C0.469493 7.2491 0.25 6.7192 0.25 6.16667V2.83333C0.25 2.2808 0.469493 1.7509 0.860194 1.36019C1.2509 0.969493 1.7808 0.75 2.33333 0.75H5.66667ZM4 2.83333C3.55797 2.83333 3.13405 3.00893 2.82149 3.32149C2.50893 3.63405 2.33333 4.05797 2.33333 4.5C2.33333 4.94203 2.50893 5.36595 2.82149 5.67851C3.13405 5.99107 3.55797 6.16667 4 6.16667C4.44203 6.16667 4.86595 5.99107 5.17851 5.67851C5.49107 5.36595 5.66667 4.94203 5.66667 4.5C5.66667 4.05797 5.49107 3.63405 5.17851 3.32149C4.86595 3.00893 4.44203 2.83333 4 2.83333ZM4 3.66667C4.22101 3.66667 4.43298 3.75446 4.58926 3.91074C4.74554 4.06702 4.83333 4.27899 4.83333 4.5C4.83333 4.72101 4.74554 4.93298 4.58926 5.08926C4.43298 5.24554 4.22101 5.33333 4 5.33333C3.77899 5.33333 3.56702 5.24554 3.41074 5.08926C3.25446 4.93298 3.16667 4.72101 3.16667 4.5C3.16667 4.27899 3.25446 4.06702 3.41074 3.91074C3.56702 3.75446 3.77899 3.66667 4 3.66667ZM5.875 2.20833C5.76449 2.20833 5.65851 2.25223 5.58037 2.33037C5.50223 2.40851 5.45833 2.51449 5.45833 2.625C5.45833 2.73551 5.50223 2.84149 5.58037 2.91963C5.65851 2.99777 5.76449 3.04167 5.875 3.04167C5.98551 3.04167 6.09149 2.99777 6.16963 2.91963C6.24777 2.84149 6.29167 2.73551 6.29167 2.625C6.29167 2.51449 6.24777 2.40851 6.16963 2.33037C6.09149 2.25223 5.98551 2.20833 5.875 2.20833Z" fill="#1E1E1E" fill-opacity="0.8"/>
</svg>
