<svg width="13" height="13" viewBox="0 0 13 13" fill="none" xmlns="http://www.w3.org/2000/svg">
<path d="M9.96084 0.0142822H3.07024C1.39131 0.0142822 0.0302734 1.37532 0.0302734 3.05425V9.94485C0.0302734 11.6238 1.39131 12.9848 3.07024 12.9848H9.96084C11.6398 12.9848 13.0008 11.6238 13.0008 9.94485V3.05425C13.0008 1.37532 11.6398 0.0142822 9.96084 0.0142822Z" fill="url(#paint0_radial_62_2431)"/>
<path d="M9.96084 0.0142822H3.07024C1.39131 0.0142822 0.0302734 1.37532 0.0302734 3.05425V9.94485C0.0302734 11.6238 1.39131 12.9848 3.07024 12.9848H9.96084C11.6398 12.9848 13.0008 11.6238 13.0008 9.94485V3.05425C13.0008 1.37532 11.6398 0.0142822 9.96084 0.0142822Z" fill="url(#paint1_radial_62_2431)"/>
<path d="M6.51629 1.43298C5.1403 1.43298 4.96758 1.43901 4.42717 1.46359C3.88778 1.48831 3.51959 1.57368 3.19746 1.69898C2.86417 1.82838 2.58151 2.00151 2.2999 2.28321C2.01805 2.56487 1.84492 2.84753 1.71511 3.18066C1.58946 3.5029 1.50399 3.87124 1.47972 4.41038C1.45555 4.95084 1.44922 5.12361 1.44922 6.49965C1.44922 7.8757 1.4553 8.04786 1.47982 8.58826C1.50465 9.12766 1.59002 9.49585 1.71522 9.81798C1.84472 10.1513 2.01785 10.4339 2.29955 10.7155C2.5811 10.9974 2.86377 11.1709 3.1968 11.3003C3.51919 11.4256 3.88743 11.511 4.42672 11.5357C4.96717 11.5603 5.13974 11.5663 6.51568 11.5663C7.89183 11.5663 8.06399 11.5603 8.6044 11.5357C9.14379 11.511 9.51239 11.4256 9.83477 11.3003C10.1679 11.1709 10.4502 10.9974 10.7317 10.7155C11.0135 10.4339 11.1866 10.1513 11.3165 9.81814C11.441 9.49585 11.5265 9.12756 11.5519 8.58837C11.5761 8.04796 11.5825 7.8757 11.5825 6.49965C11.5825 5.12361 11.5761 4.95094 11.5519 4.41048C11.5265 3.87109 11.441 3.50295 11.3165 3.18081C11.1866 2.84753 11.0135 2.56487 10.7317 2.28321C10.4499 2.00141 10.168 1.82828 9.83447 1.69903C9.51147 1.57368 9.14308 1.48826 8.60369 1.46359C8.06323 1.43901 7.89117 1.43298 6.51472 1.43298H6.51629ZM6.06177 2.34604C6.19669 2.34584 6.34722 2.34604 6.51629 2.34604C7.86913 2.34604 8.02944 2.3509 8.56366 2.37517C9.05766 2.39777 9.32578 2.4803 9.50438 2.54967C9.74084 2.64147 9.90941 2.75127 10.0866 2.92865C10.264 3.10598 10.3737 3.27485 10.4658 3.51131C10.5351 3.68966 10.6178 3.95778 10.6403 4.45178C10.6645 4.9859 10.6698 5.14631 10.6698 6.49849C10.6698 7.85067 10.6645 8.01113 10.6403 8.5452C10.6177 9.03919 10.5351 9.30732 10.4658 9.48571C10.374 9.72217 10.264 9.89054 10.0866 10.0678C9.90931 10.2451 9.74094 10.3548 9.50438 10.4467C9.32599 10.5164 9.05766 10.5987 8.56366 10.6213C8.02954 10.6456 7.86913 10.6508 6.51629 10.6508C5.1634 10.6508 5.00305 10.6456 4.46897 10.6213C3.97498 10.5985 3.70685 10.516 3.5281 10.4466C3.29169 10.3547 3.12277 10.245 2.94544 10.0677C2.76811 9.89034 2.65837 9.72187 2.56631 9.48531C2.49694 9.30691 2.41431 9.03879 2.39181 8.54479C2.36754 8.01067 2.36268 7.85026 2.36268 6.49722C2.36268 5.14418 2.36754 4.98463 2.39181 4.45051C2.41441 3.95651 2.49694 3.68839 2.56631 3.50979C2.65816 3.27333 2.76811 3.10446 2.94549 2.92713C3.12287 2.7498 3.29169 2.64 3.52815 2.54799C3.70675 2.47833 3.97498 2.396 4.46897 2.3733C4.93637 2.35217 5.1175 2.34584 6.06177 2.34477V2.34604ZM9.22085 3.1873C8.88519 3.1873 8.61286 3.45938 8.61286 3.79509C8.61286 4.13076 8.88519 4.40309 9.22085 4.40309C9.55652 4.40309 9.82885 4.13076 9.82885 3.79509C9.82885 3.45943 9.55652 3.1871 9.22085 3.1871V3.1873ZM6.51629 3.89769C5.0794 3.89769 3.91438 5.06271 3.91438 6.49965C3.91438 7.9366 5.0794 9.10106 6.51629 9.10106C7.95324 9.10106 9.11785 7.9366 9.11785 6.49965C9.11785 5.06276 7.95314 3.89769 6.51619 3.89769H6.51629ZM6.51629 4.81075C7.44901 4.81075 8.2052 5.56684 8.2052 6.49965C8.2052 7.43237 7.44901 8.18856 6.51629 8.18856C5.58358 8.18856 4.82744 7.43237 4.82744 6.49965C4.82744 5.56684 5.58353 4.81075 6.51629 4.81075Z" fill="white"/>
<defs>
<radialGradient id="paint0_radial_62_2431" cx="0" cy="0" r="1" gradientUnits="userSpaceOnUse" gradientTransform="translate(3.47557 13.9838) rotate(-90) scale(12.8548 11.956)">
<stop stop-color="#FFDD55"/>
<stop offset="0.1" stop-color="#FFDD55"/>
<stop offset="0.5" stop-color="#FF543E"/>
<stop offset="1" stop-color="#C837AB"/>
</radialGradient>
<radialGradient id="paint1_radial_62_2431" cx="0" cy="0" r="1" gradientUnits="userSpaceOnUse" gradientTransform="translate(-2.14234 0.948617) rotate(78.681) scale(5.74615 23.6858)">
<stop stop-color="#3771C8"/>
<stop offset="0.128" stop-color="#3771C8"/>
<stop offset="1" stop-color="#6600FF" stop-opacity="0"/>
</radialGradient>
</defs>
</svg>
