<svg width="60" height="60" viewBox="0 0 60 60" fill="none" xmlns="http://www.w3.org/2000/svg">
<rect width="60" height="60" rx="8" fill="url(#paint0_linear_15_2285)" fill-opacity="0.2"/>
<path d="M29.9998 43.3333C28.2489 43.3333 26.5151 42.9885 24.8974 42.3184C23.2797 41.6483 21.8099 40.6662 20.5717 39.4281C18.0713 36.9276 16.6665 33.5362 16.6665 30C16.6665 26.4638 18.0713 23.0724 20.5717 20.5719C23.0722 18.0714 26.4636 16.6667 29.9998 16.6667C37.3332 16.6667 43.3332 22 43.3332 28.6667C43.3332 30.7884 42.4903 32.8232 40.99 34.3235C39.4897 35.8238 37.4549 36.6667 35.3332 36.6667H32.9332C32.5332 36.6667 32.2665 36.9333 32.2665 37.3333C32.2665 37.4667 32.3998 37.6 32.3998 37.7333C32.9332 38.4 33.1998 39.2 33.1998 40C33.3332 41.8667 31.8665 43.3333 29.9998 43.3333ZM29.9998 19.3333C27.1709 19.3333 24.4578 20.4571 22.4574 22.4575C20.457 24.4579 19.3332 27.171 19.3332 30C19.3332 32.829 20.457 35.5421 22.4574 37.5425C24.4578 39.5429 27.1709 40.6667 29.9998 40.6667C30.3998 40.6667 30.6665 40.4 30.6665 40C30.6665 39.7333 30.5332 39.6 30.5332 39.4667C29.9998 38.8 29.7332 38.1333 29.7332 37.3333C29.7332 35.4667 31.1998 34 33.0665 34H35.3332C36.7477 34 38.1042 33.4381 39.1044 32.4379C40.1046 31.4377 40.6665 30.0812 40.6665 28.6667C40.6665 23.4667 35.8665 19.3333 29.9998 19.3333ZM22.6665 27.3333C23.7332 27.3333 24.6665 28.2667 24.6665 29.3333C24.6665 30.4 23.7332 31.3333 22.6665 31.3333C21.5998 31.3333 20.6665 30.4 20.6665 29.3333C20.6665 28.2667 21.5998 27.3333 22.6665 27.3333ZM26.6665 22C27.7332 22 28.6665 22.9333 28.6665 24C28.6665 25.0667 27.7332 26 26.6665 26C25.5998 26 24.6665 25.0667 24.6665 24C24.6665 22.9333 25.5998 22 26.6665 22ZM33.3332 22C34.3998 22 35.3332 22.9333 35.3332 24C35.3332 25.0667 34.3998 26 33.3332 26C32.2665 26 31.3332 25.0667 31.3332 24C31.3332 22.9333 32.2665 22 33.3332 22ZM37.3332 27.3333C38.3998 27.3333 39.3332 28.2667 39.3332 29.3333C39.3332 30.4 38.3998 31.3333 37.3332 31.3333C36.2665 31.3333 35.3332 30.4 35.3332 29.3333C35.3332 28.2667 36.2665 27.3333 37.3332 27.3333Z" fill="url(#paint1_linear_15_2285)"/>
<defs>
<linearGradient id="paint0_linear_15_2285" x1="0" y1="30" x2="60" y2="30" gradientUnits="userSpaceOnUse">
<stop stop-color="#8E5EFF"/>
<stop offset="1" stop-color="#4596FF"/>
</linearGradient>
<linearGradient id="paint1_linear_15_2285" x1="16.6665" y1="30" x2="43.3332" y2="30" gradientUnits="userSpaceOnUse">
<stop stop-color="#8E5EFF"/>
<stop offset="1" stop-color="#4596FF"/>
</linearGradient>
</defs>
</svg>
