<svg width="6" height="7" viewBox="0 0 6 7" fill="none" xmlns="http://www.w3.org/2000/svg">
<path d="M5.50065 3.91585H3.41732V5.99919C3.41732 6.10969 3.37342 6.21567 3.29528 6.29381C3.21714 6.37195 3.11116 6.41585 3.00065 6.41585C2.89014 6.41585 2.78416 6.37195 2.70602 6.29381C2.62788 6.21567 2.58398 6.10969 2.58398 5.99919V3.91585H0.500651C0.390144 3.91585 0.284163 3.87195 0.206023 3.79381C0.127883 3.71567 0.0839844 3.60969 0.0839844 3.49919C0.0839844 3.38868 0.127883 3.2827 0.206023 3.20456C0.284163 3.12642 0.390144 3.08252 0.500651 3.08252H2.58398V0.999186C2.58398 0.888679 2.62788 0.782698 2.70602 0.704558C2.78416 0.626418 2.89014 0.58252 3.00065 0.58252C3.11116 0.58252 3.21714 0.626418 3.29528 0.704558C3.37342 0.782698 3.41732 0.888679 3.41732 0.999186V3.08252H5.50065C5.61116 3.08252 5.71714 3.12642 5.79528 3.20456C5.87342 3.2827 5.91732 3.38868 5.91732 3.49919C5.91732 3.60969 5.87342 3.71567 5.79528 3.79381C5.71714 3.87195 5.61116 3.91585 5.50065 3.91585Z" fill="#1E1E1E" fill-opacity="0.8"/>
</svg>
