<svg width="61" height="60" viewBox="0 0 61 60" fill="none" xmlns="http://www.w3.org/2000/svg">
<path d="M0.5 3C0.5 2.06812 0.5 1.60218 0.652241 1.23463C0.855229 0.744577 1.24458 0.355229 1.73463 0.152241C2.10218 0 2.56812 0 3.5 0C21.2058 0 30.0587 0 37.042 2.89258C46.353 6.74935 53.7507 14.147 57.6074 23.458C60.5 30.4413 60.5 39.2942 60.5 57C60.5 57.9319 60.5 58.3978 60.3478 58.7654C60.1448 59.2554 59.7554 59.6448 59.2654 59.8478C58.8978 60 58.4319 60 57.5 60H4.5C2.61438 60 1.67157 60 1.08579 59.4142C0.5 58.8284 0.5 57.8856 0.5 56V3Z" fill="url(#paint0_linear_235_64)"/>
<path d="M22.0508 41.9033C19.1467 41.9033 16.791 39.4809 16.791 36.492C16.791 33.505 19.1467 31.0808 22.0508 31.0808C27.3087 31.0808 23.804 20.6208 16.791 20.6208V18.0955C29.3073 18.0937 34.2117 41.9033 22.0508 41.9033ZM37.2024 41.9033C34.3001 41.9033 31.9444 39.4809 31.9444 36.492C31.9444 33.505 34.3001 31.0808 37.2024 31.0808C42.4621 31.0808 38.9574 20.6208 31.9444 20.6208V18.0955C44.4589 18.0937 49.3633 41.9033 37.2024 41.9033Z" fill="white"/>
<defs>
<linearGradient id="paint0_linear_235_64" x1="0.5" y1="30" x2="60.5" y2="30" gradientUnits="userSpaceOnUse">
<stop stop-color="#8E5EFF"/>
<stop offset="1" stop-color="#4596FF"/>
</linearGradient>
</defs>
</svg>
