<svg width="24" height="23" viewBox="0 0 24 23" fill="none" xmlns="http://www.w3.org/2000/svg">
<path d="M12 18.5334L6.46662 21.8667C6.22217 22.0223 5.96662 22.0889 5.69995 22.0667C5.43328 22.0445 5.19995 21.9556 4.99995 21.8001C4.79995 21.6445 4.64439 21.4503 4.53328 21.2174C4.42217 20.9845 4.39995 20.7232 4.46662 20.4334L5.93328 14.1334L1.03328 9.90006C0.811061 9.70006 0.672395 9.47206 0.617284 9.21606C0.562173 8.96006 0.578617 8.71028 0.666617 8.46672C0.754617 8.22317 0.88795 8.02317 1.06662 7.86672C1.24528 7.71028 1.48973 7.61028 1.79995 7.56672L8.26662 7.00006L10.7666 1.06672C10.8777 0.800057 11.0502 0.600057 11.284 0.466723C11.5177 0.33339 11.7564 0.266724 12 0.266724C12.2435 0.266724 12.4822 0.33339 12.716 0.466723C12.9497 0.600057 13.1222 0.800057 13.2333 1.06672L15.7333 7.00006L22.1999 7.56672C22.5111 7.61117 22.7555 7.71117 22.9333 7.86672C23.1111 8.02228 23.2444 8.22228 23.3333 8.46672C23.4222 8.71117 23.4391 8.96139 23.3839 9.21739C23.3288 9.47339 23.1897 9.70095 22.9666 9.90006L18.0666 14.1334L19.5333 20.4334C19.6 20.7223 19.5777 20.9836 19.4666 21.2174C19.3555 21.4512 19.2 21.6454 19 21.8001C18.8 21.9547 18.5666 22.0436 18.3 22.0667C18.0333 22.0898 17.7777 22.0232 17.5333 21.8667L12 18.5334Z" fill="#FFA500"/>
</svg>
