<svg width="18" height="19" viewBox="0 0 18 19" fill="none" xmlns="http://www.w3.org/2000/svg">
<path fill-rule="evenodd" clip-rule="evenodd" d="M9 18.4209C10.1819 18.4209 11.3522 18.1881 12.4442 17.7358C13.5361 17.2835 14.5282 16.6206 15.364 15.7849C16.1997 14.9491 16.8626 13.957 17.3149 12.865C17.7672 11.7731 18 10.6028 18 9.4209C18 8.239 17.7672 7.06868 17.3149 5.97675C16.8626 4.88482 16.1997 3.89266 15.364 3.05694C14.5282 2.22121 13.5361 1.55827 12.4442 1.10598C11.3522 0.65369 10.1819 0.420898 9 0.420898C6.61305 0.420898 4.32387 1.36911 2.63604 3.05694C0.948212 4.74476 0 7.03395 0 9.4209C0 11.8078 0.948212 14.097 2.63604 15.7849C4.32387 17.4727 6.61305 18.4209 9 18.4209ZM8.768 13.0609L13.768 7.0609L12.232 5.7809L7.932 10.9399L5.707 8.7139L4.293 10.1279L7.293 13.1279L8.067 13.9019L8.768 13.0609Z" fill="url(#paint0_linear_72_2380)"/>
<defs>
<linearGradient id="paint0_linear_72_2380" x1="0" y1="9.4209" x2="18" y2="9.4209" gradientUnits="userSpaceOnUse">
<stop stop-color="#8E5EFF"/>
<stop offset="1" stop-color="#4596FF"/>
</linearGradient>
</defs>
</svg>
