<svg width="10" height="11" viewBox="0 0 10 11" fill="none" xmlns="http://www.w3.org/2000/svg">
<path d="M6.91575 2.925C6.631 2.5998 6.47404 2.18225 6.47409 1.75H5.18659V6.91667C5.17686 7.19633 5.05889 7.46128 4.85755 7.65562C4.65621 7.84997 4.38725 7.9585 4.10742 7.95833C3.51575 7.95833 3.02409 7.475 3.02409 6.875C3.02409 6.15833 3.71575 5.62083 4.42825 5.84167V4.525C2.99076 4.33333 1.73242 5.45 1.73242 6.875C1.73242 8.2625 2.88242 9.25 4.10326 9.25C5.41159 9.25 6.47409 8.1875 6.47409 6.875V4.25417C6.99617 4.6291 7.62299 4.83027 8.26575 4.82917V3.54167C8.26575 3.54167 7.48242 3.57917 6.91575 2.925Z" fill="#1E1E1E" fill-opacity="0.8"/>
</svg>
