<svg width="15" height="17" viewBox="0 0 15 17" fill="none" xmlns="http://www.w3.org/2000/svg">
<g clip-path="url(#clip0_416_4364)">
<path d="M10.6915 6.02461C11.7129 6.76089 12.9643 7.1941 14.3158 7.1941V4.57176C14.06 4.57186 13.8049 4.54494 13.5546 4.49143V6.55559C12.2032 6.55559 10.952 6.12243 9.93037 5.38621V10.7377C9.93037 13.4148 7.77809 15.5849 5.12334 15.5849C4.13279 15.5849 3.21207 15.2829 2.44727 14.765C3.32019 15.6651 4.53753 16.2233 5.88427 16.2233C8.53923 16.2233 10.6916 14.0533 10.6916 11.3761V6.02461H10.6915ZM11.6304 3.37899C11.1084 2.80392 10.7656 2.06075 10.6915 1.23912V0.901855H9.97019C10.1518 1.9461 10.7711 2.83824 11.6304 3.37899ZM4.12639 12.7107C3.83471 12.3252 3.67705 11.8534 3.67779 11.3684C3.67779 10.144 4.66222 9.15123 5.87677 9.15123C6.10308 9.15111 6.32806 9.18615 6.5438 9.25512V6.57413C6.29169 6.53932 6.03728 6.52448 5.78298 6.52994V8.61667C5.56714 8.54768 5.34205 8.51266 5.11563 8.51284C3.90113 8.51284 2.91676 9.5055 2.91676 10.73C2.91676 11.5959 3.40878 12.3456 4.12639 12.7107Z" fill="#FF004F"/>
<path d="M9.93126 5.38616C10.953 6.12238 12.2041 6.55554 13.5555 6.55554V4.49137C12.8012 4.32933 12.1334 3.93187 11.6313 3.37899C10.7719 2.83819 10.1526 1.94605 9.97108 0.901855H8.07654V11.376C8.07222 12.597 7.08948 13.5857 5.87755 13.5857C5.16345 13.5857 4.52896 13.2425 4.12717 12.7107C3.40967 12.3456 2.91759 11.5959 2.91759 10.7301C2.91759 9.50566 3.90197 8.51289 5.11647 8.51289C5.34916 8.51289 5.57344 8.54941 5.78382 8.61672V6.52999C3.17566 6.58434 1.07812 8.73319 1.07812 11.376C1.07812 12.6953 1.60045 13.8913 2.44821 14.7651C3.21302 15.2829 4.13368 15.585 5.12429 15.585C7.77909 15.585 9.93132 13.4148 9.93132 10.7377L9.93126 5.38616Z" fill="black"/>
<path d="M13.5549 4.49129V3.93328C12.8746 3.93427 12.2078 3.74218 11.6306 3.37896C12.1415 3.94294 12.8143 4.33186 13.5549 4.4914M9.97039 0.901773C9.9531 0.801997 9.93982 0.701556 9.93058 0.600697V0.263428H7.31466V10.7376C7.3105 11.9586 6.32777 12.9473 5.11578 12.9473C4.77219 12.9478 4.4333 12.8668 4.12648 12.7108C4.52827 13.2425 5.16276 13.5856 5.87687 13.5856C7.08874 13.5856 8.07159 12.5971 8.07585 11.376V0.901828L9.97039 0.901773ZM5.7833 6.52991V5.93576C5.5647 5.90565 5.34433 5.89057 5.12371 5.89063C2.46863 5.89063 0.316406 8.06078 0.316406 10.7376C0.316406 12.4159 1.16226 13.895 2.44763 14.765C1.59987 13.8912 1.07755 12.6952 1.07755 11.3759C1.07755 8.73317 3.17503 6.58426 5.7833 6.52991Z" fill="#00F2EA"/>
</g>
<defs>
<clipPath id="clip0_416_4364">
<rect width="14" height="16" fill="white" transform="translate(0.316406 0.263428)"/>
</clipPath>
</defs>
</svg>
