<svg width="42" height="42" viewBox="0 0 42 42" fill="none" xmlns="http://www.w3.org/2000/svg">
<path d="M20.9769 42C24.599 41.9996 28.1593 41.0624 31.3121 39.2794C34.4648 37.4964 37.1028 34.9283 38.9698 31.8246C40.8368 28.7208 41.8693 25.1869 41.9669 21.5662C42.0646 17.9455 41.2241 14.3611 39.5272 11.1612C37.8302 7.96135 35.3345 5.25477 32.2824 3.30443C29.2303 1.3541 25.7257 0.226323 22.109 0.030666C18.4923 -0.164991 14.8864 0.578123 11.6417 2.18782C8.39709 3.79751 5.62392 6.21906 3.59167 9.21721C4.88214 9.0402 6.19338 9.08523 7.46867 9.35035L8.12105 9.48349C10.9434 6.32151 14.8363 4.31634 19.0494 3.85457C23.2626 3.3928 27.4974 4.50712 30.9377 6.98269C34.3779 9.45827 36.7798 13.1198 37.6803 17.2614C38.5808 21.4029 37.9162 25.7312 35.8146 29.4118C33.713 33.0924 30.3232 35.8646 26.2988 37.194C22.2743 38.5234 17.9002 38.3159 14.0197 36.6113C10.1392 34.9068 7.02719 31.826 5.28357 27.963C3.53994 24.0999 3.28821 19.7281 4.57689 15.6904C4.64746 15.4681 4.72335 15.2471 4.80323 15.0247C4.88311 14.8024 4.96699 14.588 5.05486 14.3737H5.13341C5.33618 14.3731 5.53884 14.3833 5.74053 14.4043C5.96058 14.4253 6.17927 14.4586 6.39557 14.5042C7.50428 14.7367 8.52851 15.2673 9.35788 16.039C10.1872 16.8106 10.7903 17.794 11.102 18.8831C11.1805 19.1599 11.2388 19.442 11.2764 19.7272C11.3157 20.0082 11.3352 20.2916 11.335 20.5753V20.6632C11.335 20.9095 11.3497 21.1704 11.3723 21.454C11.3949 21.7376 11.4362 22.0345 11.4855 22.3167C11.8461 24.385 12.8364 26.2915 14.3212 27.7759C15.8059 29.2602 17.7127 30.25 19.7811 30.6101C21.8494 30.9701 23.9785 30.6829 25.8775 29.7876C27.7765 28.8923 29.3529 27.4327 30.3912 25.6079L30.4178 25.56C30.5416 25.3363 30.6495 25.1313 30.7427 24.9303C30.8492 24.7053 30.9517 24.4696 31.0489 24.2153C31.0942 24.0968 31.1381 23.9757 31.182 23.8532C31.2779 23.5656 31.3565 23.298 31.4217 23.0317C31.5352 22.5665 31.6166 22.0941 31.6653 21.6178C31.7004 21.2772 31.7182 20.935 31.7186 20.5926V20.5753C31.7186 20.2864 31.7066 19.9961 31.6826 19.7139C31.656 19.4183 31.6187 19.1281 31.5708 18.8525C31.2565 17.0234 30.4485 15.3149 29.2341 13.9115C28.0197 12.5082 26.445 11.4631 24.68 10.8894C22.9151 10.3156 21.0269 10.2348 19.2194 10.6557C17.4119 11.0767 15.7537 11.9834 14.4238 13.2779L14.3772 13.3219L14.4172 13.3725C15.2638 14.4558 15.912 15.6805 16.3317 16.9899L16.3757 17.123L16.4569 17.0058C17.1319 16.0466 18.065 15.2984 19.148 14.848C20.231 14.3977 21.4196 14.2636 22.5757 14.4614C23.7318 14.6591 24.8082 15.1807 25.6799 15.9654C26.5516 16.7502 27.183 17.766 27.5008 18.8951C27.579 19.1725 27.6382 19.455 27.6778 19.7405C27.7153 20.0212 27.7344 20.3041 27.7351 20.5873C27.7341 22.0823 27.1932 23.5266 26.212 24.6546C25.2308 25.7825 23.8752 26.5181 22.3947 26.726C20.9142 26.9338 19.4084 26.6 18.1545 25.786C16.9006 24.9719 15.9828 23.7324 15.5702 22.2954L15.5515 22.2449C15.5422 22.2089 15.5316 22.173 15.5249 22.1343C15.4728 21.937 15.4315 21.737 15.4011 21.5352C15.4011 21.5192 15.4011 21.5046 15.4011 21.49C15.3997 21.4771 15.3997 21.4642 15.4011 21.4513L15.3758 21.2383C15.3528 21.0279 15.3413 20.8163 15.3412 20.6046V20.5873C15.3412 20.2984 15.3305 20.0081 15.3079 19.7245C15.2853 19.4409 15.244 19.1427 15.1947 18.8631C14.8893 17.0763 14.112 15.4035 12.9433 14.0178C11.7745 12.6321 10.2568 11.5838 8.5471 10.9813C8.33408 10.905 8.11839 10.8362 7.90004 10.7749C7.67637 10.7124 7.45136 10.6564 7.2237 10.6098C5.72763 10.2957 4.17973 10.3258 2.69697 10.6977C0.900493 13.8919 -0.0290466 17.5005 0.00069178 21.1652C0.0304302 24.8298 1.01841 28.4228 2.86649 31.5874C4.71458 34.7521 7.35845 37.3781 10.5355 39.2048C13.7126 41.0314 17.3122 41.995 20.9769 42Z" fill="url(#paint0_linear_37_4243)"/>
<defs>
<linearGradient id="paint0_linear_37_4243" x1="20.9873" y1="0" x2="20.9873" y2="42" gradientUnits="userSpaceOnUse">
<stop stop-color="white"/>
<stop offset="1" stop-color="white"/>
</linearGradient>
</defs>
</svg>
