<svg width="203" height="42" viewBox="0 0 203 42" fill="none" xmlns="http://www.w3.org/2000/svg">
<path d="M11.4715 26.6983L11.3384 26.48V30.7977V26.4813L11.4715 26.6983Z" fill="url(#paint0_linear_37_1305)"/>
<path d="M15.3246 30.5958L15.3118 30.5886L15.3246 30.5958Z" fill="url(#paint1_linear_37_1305)"/>
<path d="M15.3232 30.5952L15.3126 30.5885L15.2913 30.5752C13.7362 29.5946 12.4289 28.2677 11.4715 26.6982L11.3384 26.4812V30.7976H15.3232V30.5952Z" fill="url(#paint2_linear_37_1305)"/>
<path d="M15.3116 30.5861L15.2903 30.5715C14.6142 30.1479 13.9826 29.6573 13.405 29.1069C13.9826 29.6596 14.6142 30.1529 15.2903 30.5794L15.3116 30.5861Z" fill="url(#paint3_linear_37_1305)"/>
<path d="M20.9769 42C24.599 41.9996 28.1593 41.0624 31.3121 39.2794C34.4648 37.4964 37.1028 34.9283 38.9698 31.8246C40.8368 28.7208 41.8693 25.1869 41.9669 21.5662C42.0646 17.9455 41.2241 14.3611 39.5272 11.1612C37.8302 7.96135 35.3345 5.25477 32.2824 3.30443C29.2303 1.3541 25.7257 0.226323 22.109 0.030666C18.4923 -0.164991 14.8864 0.578123 11.6417 2.18782C8.39709 3.79751 5.62392 6.21906 3.59167 9.21721C4.88214 9.0402 6.19338 9.08523 7.46867 9.35035L8.12105 9.48349C10.9434 6.32151 14.8363 4.31634 19.0494 3.85457C23.2626 3.3928 27.4974 4.50712 30.9377 6.98269C34.3779 9.45827 36.7798 13.1198 37.6803 17.2614C38.5808 21.4029 37.9162 25.7312 35.8146 29.4118C33.713 33.0924 30.3232 35.8646 26.2988 37.194C22.2743 38.5234 17.9002 38.3159 14.0197 36.6113C10.1392 34.9068 7.02719 31.826 5.28357 27.963C3.53994 24.0999 3.28821 19.7281 4.57689 15.6904C4.64746 15.4681 4.72335 15.2471 4.80323 15.0247C4.88311 14.8024 4.96699 14.588 5.05486 14.3737H5.13341C5.33618 14.3731 5.53884 14.3833 5.74053 14.4043C5.96058 14.4253 6.17927 14.4586 6.39557 14.5042C7.50428 14.7367 8.52851 15.2673 9.35788 16.039C10.1872 16.8106 10.7903 17.794 11.102 18.8831C11.1805 19.1599 11.2388 19.442 11.2764 19.7272C11.3157 20.0082 11.3352 20.2916 11.335 20.5753V20.6632C11.335 20.9095 11.3497 21.1704 11.3723 21.454C11.3949 21.7376 11.4362 22.0345 11.4855 22.3167C11.8461 24.385 12.8364 26.2915 14.3212 27.7759C15.8059 29.2602 17.7127 30.25 19.7811 30.6101C21.8494 30.9701 23.9785 30.6829 25.8775 29.7876C27.7765 28.8923 29.3529 27.4327 30.3912 25.6079L30.4178 25.56C30.5416 25.3363 30.6495 25.1313 30.7427 24.9303C30.8492 24.7053 30.9517 24.4696 31.0489 24.2153C31.0942 24.0968 31.1381 23.9757 31.182 23.8532C31.2779 23.5656 31.3565 23.298 31.4217 23.0317C31.5352 22.5665 31.6166 22.0941 31.6653 21.6178C31.7004 21.2772 31.7182 20.935 31.7186 20.5926V20.5753C31.7186 20.2864 31.7066 19.9961 31.6826 19.7139C31.656 19.4183 31.6187 19.1281 31.5708 18.8525C31.2565 17.0234 30.4485 15.3149 29.2341 13.9115C28.0197 12.5082 26.445 11.4631 24.68 10.8894C22.9151 10.3156 21.0269 10.2348 19.2194 10.6557C17.4119 11.0767 15.7537 11.9834 14.4238 13.2779L14.3772 13.3219L14.4172 13.3725C15.2638 14.4558 15.912 15.6805 16.3317 16.9899L16.3757 17.123L16.4569 17.0058C17.1319 16.0466 18.065 15.2984 19.148 14.848C20.231 14.3977 21.4196 14.2636 22.5757 14.4614C23.7318 14.6591 24.8082 15.1807 25.6799 15.9654C26.5516 16.7502 27.183 17.766 27.5008 18.8951C27.579 19.1725 27.6382 19.455 27.6778 19.7405C27.7153 20.0212 27.7344 20.3041 27.7351 20.5873C27.7341 22.0823 27.1932 23.5266 26.212 24.6546C25.2308 25.7825 23.8752 26.5181 22.3947 26.726C20.9142 26.9338 19.4084 26.6 18.1545 25.786C16.9006 24.9719 15.9828 23.7324 15.5702 22.2954L15.5515 22.2449C15.5422 22.2089 15.5316 22.173 15.5249 22.1343C15.4728 21.937 15.4315 21.737 15.4011 21.5352C15.4011 21.5192 15.4011 21.5046 15.4011 21.49C15.3997 21.4771 15.3997 21.4642 15.4011 21.4513L15.3758 21.2383C15.3528 21.0279 15.3413 20.8163 15.3412 20.6046V20.5873C15.3412 20.2984 15.3305 20.0081 15.3079 19.7245C15.2853 19.4409 15.244 19.1427 15.1947 18.8631C14.8893 17.0763 14.112 15.4035 12.9433 14.0178C11.7745 12.6321 10.2568 11.5838 8.5471 10.9813C8.33408 10.905 8.11839 10.8362 7.90004 10.7749C7.67637 10.7124 7.45136 10.6564 7.2237 10.6098C5.72763 10.2957 4.17973 10.3258 2.69697 10.6977C0.900493 13.8919 -0.0290466 17.5005 0.00069178 21.1652C0.0304302 24.8298 1.01841 28.4228 2.86649 31.5874C4.71458 34.7521 7.35845 37.3781 10.5355 39.2048C13.7126 41.0314 17.3122 41.995 20.9769 42Z" fill="url(#paint4_linear_37_1305)"/>
<path d="M60.7106 31.364C59.6279 31.364 58.5873 31.196 57.5886 30.86C56.5993 30.5147 55.7313 30.0247 54.9846 29.39C54.2379 28.746 53.7013 27.976 53.3746 27.08L56.5806 25.904C56.7113 26.2773 56.9773 26.618 57.3786 26.926C57.7799 27.234 58.2699 27.4813 58.8486 27.668C59.4273 27.8547 60.0479 27.948 60.7106 27.948C61.3919 27.948 62.0266 27.8453 62.6146 27.64C63.2119 27.4253 63.6926 27.1313 64.0566 26.758C64.4206 26.3753 64.6026 25.932 64.6026 25.428C64.6026 24.9147 64.4113 24.4947 64.0286 24.168C63.6459 23.832 63.1559 23.566 62.5586 23.37C61.9613 23.174 61.3453 23.0247 60.7106 22.922C59.3199 22.7073 58.0739 22.376 56.9726 21.928C55.8713 21.48 54.9986 20.8593 54.3546 20.066C53.7199 19.2727 53.4026 18.246 53.4026 16.986C53.4026 15.8007 53.7433 14.7647 54.4246 13.878C55.1059 12.9913 56.0019 12.3007 57.1126 11.806C58.2233 11.3113 59.4226 11.064 60.7106 11.064C61.7839 11.064 62.8199 11.232 63.8186 11.568C64.8173 11.904 65.6899 12.394 66.4366 13.038C67.1926 13.682 67.7339 14.4567 68.0606 15.362L64.8406 16.524C64.7099 16.1507 64.4439 15.81 64.0426 15.502C63.6413 15.194 63.1513 14.9513 62.5726 14.774C61.9939 14.5873 61.3733 14.494 60.7106 14.494C60.0479 14.4847 59.4179 14.592 58.8206 14.816C58.2326 15.0307 57.7519 15.3247 57.3786 15.698C57.0053 16.0713 56.8186 16.5007 56.8186 16.986C56.8186 17.6113 56.9913 18.0827 57.3366 18.4C57.6913 18.7173 58.1626 18.9507 58.7506 19.1C59.3386 19.24 59.9919 19.3707 60.7106 19.492C62.0173 19.6973 63.2259 20.0427 64.3366 20.528C65.4473 21.0133 66.3386 21.662 67.0106 22.474C67.6826 23.2767 68.0186 24.2613 68.0186 25.428C68.0186 26.6133 67.6826 27.654 67.0106 28.55C66.3386 29.4367 65.4473 30.1273 64.3366 30.622C63.2259 31.1167 62.0173 31.364 60.7106 31.364ZM71.2093 31V10H74.6253V31H71.2093ZM88.3278 17H91.7438V31H88.3278L88.1738 29.264C87.7911 29.8893 87.2825 30.398 86.6478 30.79C86.0225 31.1727 85.2805 31.364 84.4218 31.364C83.3858 31.364 82.4151 31.168 81.5098 30.776C80.6045 30.384 79.8065 29.8427 79.1158 29.152C78.4345 28.4613 77.8978 27.6633 77.5058 26.758C77.1231 25.8527 76.9318 24.882 76.9318 23.846C76.9318 22.8473 77.1138 21.9093 77.4778 21.032C77.8511 20.1547 78.3691 19.3847 79.0318 18.722C79.6945 18.0593 80.4598 17.5413 81.3278 17.168C82.1958 16.7947 83.1291 16.608 84.1278 16.608C85.0518 16.608 85.8778 16.8133 86.6058 17.224C87.3431 17.6347 87.9685 18.1573 88.4818 18.792L88.3278 17ZM84.3378 28.074C85.0658 28.074 85.7098 27.892 86.2698 27.528C86.8298 27.164 87.2685 26.674 87.5858 26.058C87.9031 25.4327 88.0618 24.7467 88.0618 24C88.0618 23.244 87.9031 22.558 87.5858 21.942C87.2685 21.3167 86.8251 20.822 86.2558 20.458C85.6958 20.094 85.0565 19.912 84.3378 19.912C83.6191 19.912 82.9611 20.0987 82.3638 20.472C81.7758 20.836 81.3045 21.326 80.9498 21.942C80.6045 22.558 80.4318 23.244 80.4318 24C80.4318 24.756 80.6091 25.442 80.9638 26.058C81.3185 26.674 81.7898 27.164 82.3778 27.528C82.9751 27.892 83.6285 28.074 84.3378 28.074ZM103.372 17H106.998L99.3399 38H95.7139L98.2479 31L93.2079 17H96.9459L99.9559 26.324L103.372 17ZM118.863 31.364C117.538 31.364 116.292 31.1027 115.125 30.58C113.959 30.048 112.932 29.3153 112.045 28.382C111.168 27.4487 110.477 26.3707 109.973 25.148C109.479 23.916 109.231 22.6 109.231 21.2C109.231 19.7907 109.479 18.4747 109.973 17.252C110.477 16.02 111.168 14.942 112.045 14.018C112.932 13.0847 113.959 12.3567 115.125 11.834C116.292 11.302 117.538 11.036 118.863 11.036C120.45 11.036 121.911 11.4047 123.245 12.142C124.58 12.87 125.686 13.8453 126.563 15.068L123.511 16.706C122.961 16.0247 122.275 15.4787 121.453 15.068C120.641 14.6573 119.778 14.452 118.863 14.452C118.005 14.452 117.197 14.6293 116.441 14.984C115.685 15.3293 115.023 15.8147 114.453 16.44C113.884 17.056 113.441 17.7747 113.123 18.596C112.806 19.408 112.647 20.276 112.647 21.2C112.647 22.1333 112.806 23.006 113.123 23.818C113.45 24.63 113.898 25.3487 114.467 25.974C115.037 26.59 115.695 27.0753 116.441 27.43C117.197 27.7753 118.005 27.948 118.863 27.948C119.797 27.948 120.665 27.7427 121.467 27.332C122.279 26.912 122.961 26.3613 123.511 25.68L126.563 27.332C125.686 28.5453 124.58 29.5207 123.245 30.258C121.911 30.9953 120.45 31.364 118.863 31.364ZM139.023 17H142.439V31H139.023L138.869 29.264C138.486 29.8893 137.978 30.398 137.343 30.79C136.718 31.1727 135.976 31.364 135.117 31.364C134.081 31.364 133.11 31.168 132.205 30.776C131.3 30.384 130.502 29.8427 129.811 29.152C129.13 28.4613 128.593 27.6633 128.201 26.758C127.818 25.8527 127.627 24.882 127.627 23.846C127.627 22.8473 127.809 21.9093 128.173 21.032C128.546 20.1547 129.064 19.3847 129.727 18.722C130.39 18.0593 131.155 17.5413 132.023 17.168C132.891 16.7947 133.824 16.608 134.823 16.608C135.747 16.608 136.573 16.8133 137.301 17.224C138.038 17.6347 138.664 18.1573 139.177 18.792L139.023 17ZM135.033 28.074C135.761 28.074 136.405 27.892 136.965 27.528C137.525 27.164 137.964 26.674 138.281 26.058C138.598 25.4327 138.757 24.7467 138.757 24C138.757 23.244 138.598 22.558 138.281 21.942C137.964 21.3167 137.52 20.822 136.951 20.458C136.391 20.094 135.752 19.912 135.033 19.912C134.314 19.912 133.656 20.0987 133.059 20.472C132.471 20.836 132 21.326 131.645 21.942C131.3 22.558 131.127 23.244 131.127 24C131.127 24.756 131.304 25.442 131.659 26.058C132.014 26.674 132.485 27.164 133.073 27.528C133.67 27.892 134.324 28.074 135.033 28.074ZM158.053 22.152V31H154.637V23.048C154.637 22.4973 154.501 21.998 154.231 21.55C153.96 21.0927 153.596 20.7333 153.139 20.472C152.691 20.2013 152.191 20.066 151.641 20.066C151.09 20.066 150.586 20.2013 150.129 20.472C149.681 20.7333 149.321 21.0927 149.051 21.55C148.789 21.998 148.659 22.4973 148.659 23.048V31H145.243L145.229 17H148.645L148.659 18.246C149.135 17.742 149.704 17.3453 150.367 17.056C151.029 16.7573 151.743 16.608 152.509 16.608C153.526 16.608 154.455 16.86 155.295 17.364C156.135 17.8587 156.802 18.526 157.297 19.366C157.801 20.1967 158.053 21.1253 158.053 22.152ZM168.879 31H164.469L159.373 16.986H163.013L166.681 27.066L170.335 16.986H173.975L168.879 31ZM186.054 17H189.47V31H186.054L185.9 29.264C185.518 29.8893 185.009 30.398 184.374 30.79C183.749 31.1727 183.007 31.364 182.148 31.364C181.112 31.364 180.142 31.168 179.236 30.776C178.331 30.384 177.533 29.8427 176.842 29.152C176.161 28.4613 175.624 27.6633 175.232 26.758C174.85 25.8527 174.658 24.882 174.658 23.846C174.658 22.8473 174.84 21.9093 175.204 21.032C175.578 20.1547 176.096 19.3847 176.758 18.722C177.421 18.0593 178.186 17.5413 179.054 17.168C179.922 16.7947 180.856 16.608 181.854 16.608C182.778 16.608 183.604 16.8133 184.332 17.224C185.07 17.6347 185.695 18.1573 186.208 18.792L186.054 17ZM182.064 28.074C182.792 28.074 183.436 27.892 183.996 27.528C184.556 27.164 184.995 26.674 185.312 26.058C185.63 25.4327 185.788 24.7467 185.788 24C185.788 23.244 185.63 22.558 185.312 21.942C184.995 21.3167 184.552 20.822 183.982 20.458C183.422 20.094 182.783 19.912 182.064 19.912C181.346 19.912 180.688 20.0987 180.09 20.472C179.502 20.836 179.031 21.326 178.676 21.942C178.331 22.558 178.158 23.244 178.158 24C178.158 24.756 178.336 25.442 178.69 26.058C179.045 26.674 179.516 27.164 180.104 27.528C180.702 27.892 181.355 28.074 182.064 28.074ZM196.39 31.252C195.662 31.2053 194.957 31.0607 194.276 30.818C193.604 30.566 193.007 30.2253 192.484 29.796C191.961 29.3667 191.56 28.8533 191.28 28.256L194.164 27.024C194.276 27.2107 194.458 27.4113 194.71 27.626C194.962 27.8313 195.261 28.004 195.606 28.144C195.961 28.284 196.348 28.354 196.768 28.354C197.123 28.354 197.459 28.3073 197.776 28.214C198.103 28.1113 198.364 27.9573 198.56 27.752C198.765 27.5467 198.868 27.2807 198.868 26.954C198.868 26.6087 198.747 26.3427 198.504 26.156C198.271 25.96 197.972 25.8153 197.608 25.722C197.253 25.6193 196.908 25.526 196.572 25.442C195.685 25.2647 194.859 24.9893 194.094 24.616C193.338 24.2427 192.727 23.762 192.26 23.174C191.803 22.5767 191.574 21.858 191.574 21.018C191.574 20.094 191.817 19.296 192.302 18.624C192.797 17.952 193.436 17.434 194.22 17.07C195.013 16.706 195.867 16.524 196.782 16.524C197.893 16.524 198.91 16.7573 199.834 17.224C200.767 17.6813 201.505 18.33 202.046 19.17L199.344 20.766C199.213 20.542 199.031 20.3367 198.798 20.15C198.565 19.954 198.299 19.7953 198 19.674C197.701 19.5433 197.389 19.4687 197.062 19.45C196.642 19.4313 196.259 19.4687 195.914 19.562C195.569 19.6553 195.289 19.814 195.074 20.038C194.869 20.262 194.766 20.5607 194.766 20.934C194.766 21.2887 194.906 21.5547 195.186 21.732C195.466 21.9 195.802 22.0307 196.194 22.124C196.595 22.2173 196.978 22.32 197.342 22.432C198.163 22.7027 198.933 23.034 199.652 23.426C200.38 23.818 200.963 24.2987 201.402 24.868C201.841 25.4373 202.051 26.1187 202.032 26.912C202.032 27.8173 201.761 28.6107 201.22 29.292C200.679 29.964 199.979 30.4773 199.12 30.832C198.271 31.1867 197.361 31.3267 196.39 31.252Z" fill="white"/>
<defs>
<linearGradient id="paint0_linear_37_1305" x1="12.3722" y1="26.48" x2="12.3722" y2="30.7977" gradientUnits="userSpaceOnUse">
<stop stop-color="white"/>
<stop offset="1" stop-color="white"/>
</linearGradient>
<linearGradient id="paint1_linear_37_1305" x1="15.3182" y1="30.5886" x2="15.3182" y2="30.5958" gradientUnits="userSpaceOnUse">
<stop stop-color="white"/>
<stop offset="1" stop-color="white"/>
</linearGradient>
<linearGradient id="paint2_linear_37_1305" x1="13.3308" y1="26.4812" x2="13.3308" y2="30.7976" gradientUnits="userSpaceOnUse">
<stop stop-color="white"/>
<stop offset="1" stop-color="white"/>
</linearGradient>
<linearGradient id="paint3_linear_37_1305" x1="14.3583" y1="29.1069" x2="14.3583" y2="30.5861" gradientUnits="userSpaceOnUse">
<stop stop-color="white"/>
<stop offset="1" stop-color="white"/>
</linearGradient>
<linearGradient id="paint4_linear_37_1305" x1="20.9873" y1="0" x2="20.9873" y2="42" gradientUnits="userSpaceOnUse">
<stop stop-color="white"/>
<stop offset="1" stop-color="white"/>
</linearGradient>
</defs>
</svg>
