<svg width="10" height="7" viewBox="0 0 10 7" fill="none" xmlns="http://www.w3.org/2000/svg">
<path d="M4.16732 4.75004L6.32982 3.50004L4.16732 2.25004V4.75004ZM8.98399 1.48754C9.03815 1.68337 9.07565 1.94587 9.10065 2.27921C9.12982 2.61254 9.14232 2.90004 9.14232 3.15004L9.16732 3.50004C9.16732 4.41254 9.10065 5.08337 8.98399 5.51254C8.87982 5.88754 8.63815 6.12921 8.26315 6.23337C8.06732 6.28754 7.70899 6.32504 7.15899 6.35004C6.61732 6.37921 6.12149 6.39171 5.66315 6.39171L5.00065 6.41671C3.25482 6.41671 2.16732 6.35004 1.73815 6.23337C1.36315 6.12921 1.12148 5.88754 1.01732 5.51254C0.963151 5.31671 0.925651 5.05421 0.900651 4.72087C0.871484 4.38754 0.858984 4.10004 0.858984 3.85004L0.833984 3.50004C0.833984 2.58754 0.900651 1.91671 1.01732 1.48754C1.12148 1.11254 1.36315 0.870874 1.73815 0.766707C1.93398 0.712541 2.29232 0.675041 2.84232 0.650041C3.38398 0.620874 3.87982 0.608374 4.33815 0.608374L5.00065 0.583374C6.74649 0.583374 7.83399 0.650041 8.26315 0.766707C8.63815 0.870874 8.87982 1.11254 8.98399 1.48754Z" fill="#1E1E1E" fill-opacity="0.8"/>
</svg>
