<svg width="14" height="11" viewBox="0 0 14 11" fill="none" xmlns="http://www.w3.org/2000/svg">
<path d="M5.88488 7.4811L9.31307 5.49949L5.88488 3.51788V7.4811ZM13.5207 2.3091C13.6066 2.61955 13.666 3.03569 13.7056 3.56412C13.7519 4.09255 13.7717 4.54832 13.7717 4.94464L13.8113 5.49949C13.8113 6.94607 13.7056 8.00953 13.5207 8.68988C13.3556 9.28437 12.9724 9.66748 12.378 9.83261C12.0675 9.91848 11.4994 9.97793 10.6275 10.0176C9.76884 10.0638 8.9828 10.0836 8.25621 10.0836L7.20596 10.1232C4.43831 10.1232 2.7143 10.0176 2.03395 9.83261C1.43947 9.66748 1.05636 9.28437 0.891222 8.68988C0.805352 8.37943 0.745904 7.96329 0.706272 7.43486C0.660034 6.90643 0.640218 6.45066 0.640218 6.05434L0.600586 5.49949C0.600586 4.05291 0.706272 2.98945 0.891222 2.3091C1.05636 1.71461 1.43947 1.3315 2.03395 1.16637C2.3444 1.0805 2.91247 1.02105 3.78437 0.981418C4.64307 0.935181 5.42911 0.915365 6.1557 0.915365L7.20596 0.875732C9.97361 0.875732 11.6976 0.981418 12.378 1.16637C12.9724 1.3315 13.3556 1.71461 13.5207 2.3091Z" fill="#FF4500"/>
</svg>
